<?xml version="1.0" standalone="no"?>
<!DOCTYPE svg PUBLIC "-//W3C//DTD SVG 1.1//EN" "http://www.w3.org/Graphics/SVG/1.1/DTD/svg11.dtd">
<svg version="1.1" width="1400" height="550" onload="init(evt)" viewBox="0 0 1400 550" xmlns="http://www.w3.org/2000/svg" xmlns:xlink="http://www.w3.org/1999/xlink">
<!-- Flame graph stack visualization. See https://github.com/brendangregg/FlameGraph for latest version, and http://www.brendangregg.com/flamegraphs.html for examples. -->
<!-- NOTES:  -->
<defs>
	<linearGradient id="background" y1="0" y2="1" x1="0" x2="0" >
		<stop stop-color="#eeeeee" offset="5%" />
		<stop stop-color="#eeeeb0" offset="95%" />
	</linearGradient>
</defs>
<style type="text/css">
	text { font-family:Verdana; font-size:12px; fill:rgb(0,0,0); }
	#search, #ignorecase { opacity:0.1; cursor:pointer; }
	#search:hover, #search.show, #ignorecase:hover, #ignorecase.show { opacity:1; }
	#subtitle { text-anchor:middle; font-color:rgb(160,160,160); }
	#title { text-anchor:middle; font-size:17px}
	#unzoom { cursor:pointer; }
	#frames > *:hover { stroke:black; stroke-width:0.5; cursor:pointer; }
	.hide { display:none; }
	.parent { opacity:0.5; }
</style>
<script type="text/ecmascript">
<![CDATA[
	"use strict";
	var details, searchbtn, unzoombtn, matchedtxt, svg, searching, currentSearchTerm, ignorecase, ignorecaseBtn;
	function init(evt) {
		details = document.getElementById("details").firstChild;
		searchbtn = document.getElementById("search");
		ignorecaseBtn = document.getElementById("ignorecase");
		unzoombtn = document.getElementById("unzoom");
		matchedtxt = document.getElementById("matched");
		svg = document.getElementsByTagName("svg")[0];
		searching = 0;
		currentSearchTerm = null;

		// use GET parameters to restore a flamegraphs state.
		var params = get_params();
		if (params.x && params.y)
			zoom(find_group(document.querySelector('[x="' + params.x + '"][y="' + params.y + '"]')));
                if (params.s) search(params.s);
	}

	// event listeners
	window.addEventListener("click", function(e) {
		var target = find_group(e.target);
		if (target) {
			if (target.nodeName == "a") {
				if (e.ctrlKey === false) return;
				e.preventDefault();
			}
			if (target.classList.contains("parent")) unzoom(true);
			zoom(target);
			if (!document.querySelector('.parent')) {
				// we have basically done a clearzoom so clear the url
				var params = get_params();
				if (params.x) delete params.x;
				if (params.y) delete params.y;
				history.replaceState(null, null, parse_params(params));
				unzoombtn.classList.add("hide");
				return;
			}

			// set parameters for zoom state
			var el = target.querySelector("rect");
			if (el && el.attributes && el.attributes.y && el.attributes._orig_x) {
				var params = get_params()
				params.x = el.attributes._orig_x.value;
				params.y = el.attributes.y.value;
				history.replaceState(null, null, parse_params(params));
			}
		}
		else if (e.target.id == "unzoom") clearzoom();
		else if (e.target.id == "search") search_prompt();
		else if (e.target.id == "ignorecase") toggle_ignorecase();
	}, false)

	// mouse-over for info
	// show
	window.addEventListener("mouseover", function(e) {
		var target = find_group(e.target);
		if (target) details.nodeValue = "Function: " + g_to_text(target);
	}, false)

	// clear
	window.addEventListener("mouseout", function(e) {
		var target = find_group(e.target);
		if (target) details.nodeValue = ' ';
	}, false)

	// ctrl-F for search
	// ctrl-I to toggle case-sensitive search
	window.addEventListener("keydown",function (e) {
		if (e.keyCode === 114 || (e.ctrlKey && e.keyCode === 70)) {
			e.preventDefault();
			search_prompt();
		}
		else if (e.ctrlKey && e.keyCode === 73) {
			e.preventDefault();
			toggle_ignorecase();
		}
	}, false)

	// functions
	function get_params() {
		var params = {};
		var paramsarr = window.location.search.substr(1).split('&');
		for (var i = 0; i < paramsarr.length; ++i) {
			var tmp = paramsarr[i].split("=");
			if (!tmp[0] || !tmp[1]) continue;
			params[tmp[0]]  = decodeURIComponent(tmp[1]);
		}
		return params;
	}
	function parse_params(params) {
		var uri = "?";
		for (var key in params) {
			uri += key + '=' + encodeURIComponent(params[key]) + '&';
		}
		if (uri.slice(-1) == "&")
			uri = uri.substring(0, uri.length - 1);
		if (uri == '?')
			uri = window.location.href.split('?')[0];
		return uri;
	}
	function find_child(node, selector) {
		var children = node.querySelectorAll(selector);
		if (children.length) return children[0];
	}
	function find_group(node) {
		var parent = node.parentElement;
		if (!parent) return;
		if (parent.id == "frames") return node;
		return find_group(parent);
	}
	function orig_save(e, attr, val) {
		if (e.attributes["_orig_" + attr] != undefined) return;
		if (e.attributes[attr] == undefined) return;
		if (val == undefined) val = e.attributes[attr].value;
		e.setAttribute("_orig_" + attr, val);
	}
	function orig_load(e, attr) {
		if (e.attributes["_orig_"+attr] == undefined) return;
		e.attributes[attr].value = e.attributes["_orig_" + attr].value;
		e.removeAttribute("_orig_"+attr);
	}
	function g_to_text(e) {
		var text = find_child(e, "title").firstChild.nodeValue;
		return (text)
	}
	function g_to_func(e) {
		var func = g_to_text(e);
		// if there's any manipulation we want to do to the function
		// name before it's searched, do it here before returning.
		return (func);
	}
	function update_text(e) {
		var r = find_child(e, "rect");
		var t = find_child(e, "text");
		var w = parseFloat(r.attributes.width.value) -3;
		var txt = find_child(e, "title").textContent.replace(/\([^(]*\)$/,"");
		t.attributes.x.value = parseFloat(r.attributes.x.value) + 3;

		// Smaller than this size won't fit anything
		if (w < 2 * 12 * 0.59) {
			t.textContent = "";
			return;
		}

		t.textContent = txt;
		var sl = t.getSubStringLength(0, txt.length);
		// check if only whitespace or if we can fit the entire string into width w
		if (/^ *$/.test(txt) || sl < w)
			return;

		// this isn't perfect, but gives a good starting point
		// and avoids calling getSubStringLength too often
		var start = Math.floor((w/sl) * txt.length);
		for (var x = start; x > 0; x = x-2) {
			if (t.getSubStringLength(0, x + 2) <= w) {
				t.textContent = txt.substring(0, x) + "..";
				return;
			}
		}
		t.textContent = "";
	}

	// zoom
	function zoom_reset(e) {
		if (e.attributes != undefined) {
			orig_load(e, "x");
			orig_load(e, "width");
		}
		if (e.childNodes == undefined) return;
		for (var i = 0, c = e.childNodes; i < c.length; i++) {
			zoom_reset(c[i]);
		}
	}
	function zoom_child(e, x, ratio) {
		if (e.attributes != undefined) {
			if (e.attributes.x != undefined) {
				orig_save(e, "x");
				e.attributes.x.value = (parseFloat(e.attributes.x.value) - x - 10) * ratio + 10;
				if (e.tagName == "text")
					e.attributes.x.value = find_child(e.parentNode, "rect[x]").attributes.x.value + 3;
			}
			if (e.attributes.width != undefined) {
				orig_save(e, "width");
				e.attributes.width.value = parseFloat(e.attributes.width.value) * ratio;
			}
		}

		if (e.childNodes == undefined) return;
		for (var i = 0, c = e.childNodes; i < c.length; i++) {
			zoom_child(c[i], x - 10, ratio);
		}
	}
	function zoom_parent(e) {
		if (e.attributes) {
			if (e.attributes.x != undefined) {
				orig_save(e, "x");
				e.attributes.x.value = 10;
			}
			if (e.attributes.width != undefined) {
				orig_save(e, "width");
				e.attributes.width.value = parseInt(svg.width.baseVal.value) - (10 * 2);
			}
		}
		if (e.childNodes == undefined) return;
		for (var i = 0, c = e.childNodes; i < c.length; i++) {
			zoom_parent(c[i]);
		}
	}
	function zoom(node) {
		var attr = find_child(node, "rect").attributes;
		var width = parseFloat(attr.width.value);
		var xmin = parseFloat(attr.x.value);
		var xmax = parseFloat(xmin + width);
		var ymin = parseFloat(attr.y.value);
		var ratio = (svg.width.baseVal.value - 2 * 10) / width;

		// XXX: Workaround for JavaScript float issues (fix me)
		var fudge = 0.0001;

		unzoombtn.classList.remove("hide");

		var el = document.getElementById("frames").children;
		for (var i = 0; i < el.length; i++) {
			var e = el[i];
			var a = find_child(e, "rect").attributes;
			var ex = parseFloat(a.x.value);
			var ew = parseFloat(a.width.value);
			var upstack;
			// Is it an ancestor
			if (0 == 0) {
				upstack = parseFloat(a.y.value) > ymin;
			} else {
				upstack = parseFloat(a.y.value) < ymin;
			}
			if (upstack) {
				// Direct ancestor
				if (ex <= xmin && (ex+ew+fudge) >= xmax) {
					e.classList.add("parent");
					zoom_parent(e);
					update_text(e);
				}
				// not in current path
				else
					e.classList.add("hide");
			}
			// Children maybe
			else {
				// no common path
				if (ex < xmin || ex + fudge >= xmax) {
					e.classList.add("hide");
				}
				else {
					zoom_child(e, xmin, ratio);
					update_text(e);
				}
			}
		}
		search();
	}
	function unzoom(dont_update_text) {
		unzoombtn.classList.add("hide");
		var el = document.getElementById("frames").children;
		for(var i = 0; i < el.length; i++) {
			el[i].classList.remove("parent");
			el[i].classList.remove("hide");
			zoom_reset(el[i]);
			if(!dont_update_text) update_text(el[i]);
		}
		search();
	}
	function clearzoom() {
		unzoom();

		// remove zoom state
		var params = get_params();
		if (params.x) delete params.x;
		if (params.y) delete params.y;
		history.replaceState(null, null, parse_params(params));
	}

	// search
	function toggle_ignorecase() {
		ignorecase = !ignorecase;
		if (ignorecase) {
			ignorecaseBtn.classList.add("show");
		} else {
			ignorecaseBtn.classList.remove("show");
		}
		reset_search();
		search();
	}
	function reset_search() {
		var el = document.querySelectorAll("#frames rect");
		for (var i = 0; i < el.length; i++) {
			orig_load(el[i], "fill")
		}
		var params = get_params();
		delete params.s;
		history.replaceState(null, null, parse_params(params));
	}
	function search_prompt() {
		if (!searching) {
			var term = prompt("Enter a search term (regexp " +
			    "allowed, eg: ^ext4_)"
			    + (ignorecase ? ", ignoring case" : "")
			    + "\nPress Ctrl-i to toggle case sensitivity", "");
			if (term != null) search(term);
		} else {
			reset_search();
			searching = 0;
			currentSearchTerm = null;
			searchbtn.classList.remove("show");
			searchbtn.firstChild.nodeValue = "Search"
			matchedtxt.classList.add("hide");
			matchedtxt.firstChild.nodeValue = ""
		}
	}
	function search(term) {
		if (term) currentSearchTerm = term;

		var re = new RegExp(currentSearchTerm, ignorecase ? 'i' : '');
		var el = document.getElementById("frames").children;
		var matches = new Object();
		var maxwidth = 0;
		for (var i = 0; i < el.length; i++) {
			var e = el[i];
			var func = g_to_func(e);
			var rect = find_child(e, "rect");
			if (func == null || rect == null)
				continue;

			// Save max width. Only works as we have a root frame
			var w = parseFloat(rect.attributes.width.value);
			if (w > maxwidth)
				maxwidth = w;

			if (func.match(re)) {
				// highlight
				var x = parseFloat(rect.attributes.x.value);
				orig_save(rect, "fill");
				rect.attributes.fill.value = "rgb(230,0,230)";

				// remember matches
				if (matches[x] == undefined) {
					matches[x] = w;
				} else {
					if (w > matches[x]) {
						// overwrite with parent
						matches[x] = w;
					}
				}
				searching = 1;
			}
		}
		if (!searching)
			return;
		var params = get_params();
		params.s = currentSearchTerm;
		history.replaceState(null, null, parse_params(params));

		searchbtn.classList.add("show");
		searchbtn.firstChild.nodeValue = "Reset Search";

		// calculate percent matched, excluding vertical overlap
		var count = 0;
		var lastx = -1;
		var lastw = 0;
		var keys = Array();
		for (k in matches) {
			if (matches.hasOwnProperty(k))
				keys.push(k);
		}
		// sort the matched frames by their x location
		// ascending, then width descending
		keys.sort(function(a, b){
			return a - b;
		});
		// Step through frames saving only the biggest bottom-up frames
		// thanks to the sort order. This relies on the tree property
		// where children are always smaller than their parents.
		var fudge = 0.0001;	// JavaScript floating point
		for (var k in keys) {
			var x = parseFloat(keys[k]);
			var w = matches[keys[k]];
			if (x >= lastx + lastw - fudge) {
				count += w;
				lastx = x;
				lastw = w;
			}
		}
		// display matched percent
		matchedtxt.classList.remove("hide");
		var pct = 100 * count / maxwidth;
		if (pct != 100) pct = pct.toFixed(1)
		matchedtxt.firstChild.nodeValue = "Matched: " + pct + "%";
	}
]]>
</script>
<rect x="0.0" y="0" width="1400.0" height="550.0" fill="url(#background)"  />
<text id="title" x="700.00" y="24" >alloc-profiled: mutex</text>
<text id="details" x="10.00" y="533" > </text>
<text id="unzoom" x="10.00" y="24" class="hide">Reset Zoom</text>
<text id="search" x="1290.00" y="24" >Search</text>
<text id="ignorecase" x="1374.00" y="24" >ic</text>
<text id="matched" x="1290.00" y="533" > </text>
<g id="frames">
<g >
<title>github.com/nats-io/nats%2ego.(*Conn).publish (445,401,735 ns, 1.75%)</title><rect x="66.0" y="357" width="24.1" height="15.0" fill="rgb(240,161,38)" rx="2" ry="2" />
<text  x="68.98" y="367.5" >g..</text>
</g>
<g >
<title>runtime.unlock (9,775,002 ns, 0.04%)</title><rect x="10.2" y="213" width="0.5" height="15.0" fill="rgb(217,57,13)" rx="2" ry="2" />
<text  x="13.20" y="223.5" ></text>
</g>
<g >
<title>google.golang.org/grpc/encoding/proto.(*codecV2).Unmarshal (1,254,829,581 ns, 4.93%)</title><rect x="90.1" y="357" width="68.1" height="15.0" fill="rgb(236,143,34)" rx="2" ry="2" />
<text  x="93.14" y="367.5" >google...</text>
</g>
<g >
<title>runtime.(*mheap).alloc (3,666,601 ns, 0.01%)</title><rect x="10.0" y="277" width="0.2" height="15.0" fill="rgb(230,117,28)" rx="2" ry="2" />
<text  x="13.00" y="287.5" ></text>
</g>
<g >
<title>runtime.(*mcache).prepareForSweep (17,941,605 ns, 0.07%)</title><rect x="158.2" y="341" width="1.0" height="15.0" fill="rgb(213,37,9)" rx="2" ry="2" />
<text  x="161.21" y="351.5" ></text>
</g>
<g >
<title>runtime.(*mheap).alloc.func1 (9,775,002 ns, 0.04%)</title><rect x="10.2" y="229" width="0.5" height="15.0" fill="rgb(252,216,51)" rx="2" ry="2" />
<text  x="13.20" y="239.5" ></text>
</g>
<g >
<title>github.com/jamespolk/go-log-aggregator/internal/queue.(*Conn).Publish (188,556,456 ns, 0.74%)</title><rect x="10.7" y="437" width="10.3" height="15.0" fill="rgb(247,196,46)" rx="2" ry="2" />
<text  x="13.73" y="447.5" ></text>
</g>
<g >
<title>runtime.unlock (5,429,101 ns, 0.02%)</title><rect x="162.5" y="453" width="0.3" height="15.0" fill="rgb(217,57,13)" rx="2" ry="2" />
<text  x="165.53" y="463.5" ></text>
</g>
<g >
<title>google.golang.org/protobuf/proto.UnmarshalOptions.unmarshal (1,254,829,581 ns, 4.93%)</title><rect x="90.1" y="325" width="68.1" height="15.0" fill="rgb(246,190,45)" rx="2" ry="2" />
<text  x="93.14" y="335.5" >google...</text>
</g>
<g >
<title>runtime.mstart0 (119,058,236 ns, 0.47%)</title><rect x="162.8" y="469" width="6.5" height="15.0" fill="rgb(210,25,6)" rx="2" ry="2" />
<text  x="165.83" y="479.5" ></text>
</g>
<g >
<title>github.com/jackc/pgx/v5.(*copyFrom).buildCopyBuf (13,441,603 ns, 0.05%)</title><rect x="10.0" y="469" width="0.7" height="15.0" fill="rgb(223,85,20)" rx="2" ry="2" />
<text  x="13.00" y="479.5" ></text>
</g>
<g >
<title>github.com/nats-io/nats.go/jetstream.(*jetStream).PublishMsg (188,556,456 ns, 0.74%)</title><rect x="10.7" y="421" width="10.3" height="15.0" fill="rgb(235,141,33)" rx="2" ry="2" />
<text  x="13.73" y="431.5" ></text>
</g>
<g >
<title>runtime.makeslice (10,525,003 ns, 0.04%)</title><rect x="1389.4" y="405" width="0.6" height="15.0" fill="rgb(244,180,43)" rx="2" ry="2" />
<text  x="1392.43" y="415.5" ></text>
</g>
<g >
<title>runtime.mallocgc (10,525,003 ns, 0.04%)</title><rect x="1389.4" y="389" width="0.6" height="15.0" fill="rgb(241,169,40)" rx="2" ry="2" />
<text  x="1392.43" y="399.5" ></text>
</g>
<g >
<title>github.com/jamespolk/go-log-aggregator/internal/ingest.(*service).handle (445,401,735 ns, 1.75%)</title><rect x="66.0" y="405" width="24.1" height="15.0" fill="rgb(243,175,42)" rx="2" ry="2" />
<text  x="68.98" y="415.5" >g..</text>
</g>
<g >
<title>runtime.(*mcache).nextFree (836,150,254 ns, 3.29%)</title><rect x="90.1" y="149" width="45.4" height="15.0" fill="rgb(222,80,19)" rx="2" ry="2" />
<text  x="93.14" y="159.5" >runt..</text>
</g>
<g >
<title>runtime.acquirep (17,941,605 ns, 0.07%)</title><rect x="158.2" y="373" width="1.0" height="15.0" fill="rgb(236,146,34)" rx="2" ry="2" />
<text  x="161.21" y="383.5" ></text>
</g>
<g >
<title>google.golang.org/protobuf/proto.Unmarshal (573,933,375 ns, 2.26%)</title><rect x="34.8" y="405" width="31.2" height="15.0" fill="rgb(248,198,47)" rx="2" ry="2" />
<text  x="37.83" y="415.5" >go..</text>
</g>
<g >
<title>runtime.gopreempt_m (5,429,101 ns, 0.02%)</title><rect x="162.5" y="469" width="0.3" height="15.0" fill="rgb(237,148,35)" rx="2" ry="2" />
<text  x="165.53" y="479.5" ></text>
</g>
<g >
<title>runtime.mallocgc (3,666,601 ns, 0.01%)</title><rect x="10.0" y="373" width="0.2" height="15.0" fill="rgb(241,169,40)" rx="2" ry="2" />
<text  x="13.00" y="383.5" ></text>
</g>
<g >
<title>runtime.unlock (119,058,236 ns, 0.47%)</title><rect x="162.8" y="405" width="6.5" height="15.0" fill="rgb(217,57,13)" rx="2" ry="2" />
<text  x="165.83" y="415.5" ></text>
</g>
<g >
<title>github.com/jackc/pgx/v5/pgtype.(*derefPointerEncodePlan).Encode (3,666,601 ns, 0.01%)</title><rect x="10.0" y="421" width="0.2" height="15.0" fill="rgb(221,73,17)" rx="2" ry="2" />
<text  x="13.00" y="431.5" ></text>
</g>
<g >
<title>runtime.systemstack (3,666,601 ns, 0.01%)</title><rect x="10.0" y="261" width="0.2" height="15.0" fill="rgb(206,6,1)" rx="2" ry="2" />
<text  x="13.00" y="271.5" ></text>
</g>
<g >
<title>github.com/jackc/pgx/v5/pgconn.(*PgConn).CopyFrom.func1 (10,525,003 ns, 0.04%)</title><rect x="1389.4" y="469" width="0.6" height="15.0" fill="rgb(235,138,33)" rx="2" ry="2" />
<text  x="1392.43" y="479.5" ></text>
</g>
<g >
<title>runtime.schedule (17,941,605 ns, 0.07%)</title><rect x="158.2" y="437" width="1.0" height="15.0" fill="rgb(220,72,17)" rx="2" ry="2" />
<text  x="161.21" y="447.5" ></text>
</g>
<g >
<title>runtime.retake (119,058,236 ns, 0.47%)</title><rect x="162.8" y="421" width="6.5" height="15.0" fill="rgb(220,72,17)" rx="2" ry="2" />
<text  x="165.83" y="431.5" ></text>
</g>
<g >
<title>runtime.unlock (61,195,918 ns, 0.24%)</title><rect x="159.2" y="437" width="3.3" height="15.0" fill="rgb(217,57,13)" rx="2" ry="2" />
<text  x="162.21" y="447.5" ></text>
</g>
<g >
<title>runtime.(*mheap).alloc.func1 (573,933,375 ns, 2.26%)</title><rect x="34.8" y="117" width="31.2" height="15.0" fill="rgb(252,216,51)" rx="2" ry="2" />
<text  x="37.83" y="127.5" >ru..</text>
</g>
<g >
<title>runtime.(*mheap).freeSpan (17,941,605 ns, 0.07%)</title><rect x="158.2" y="293" width="1.0" height="15.0" fill="rgb(212,32,7)" rx="2" ry="2" />
<text  x="161.21" y="303.5" ></text>
</g>
<g >
<title>runtime.(*mheap).alloc (836,150,254 ns, 3.29%)</title><rect x="90.1" y="85" width="45.4" height="15.0" fill="rgb(230,117,28)" rx="2" ry="2" />
<text  x="93.14" y="95.5" >runt..</text>
</g>
<g >
<title>runtime.(*mheap).alloc (573,933,375 ns, 2.26%)</title><rect x="34.8" y="149" width="31.2" height="15.0" fill="rgb(230,117,28)" rx="2" ry="2" />
<text  x="37.83" y="159.5" >ru..</text>
</g>
<g >
<title>google.golang.org/protobuf/internal/impl.consumeStringValidateUTF8 (836,150,254 ns, 3.29%)</title><rect x="90.1" y="213" width="45.4" height="15.0" fill="rgb(251,212,50)" rx="2" ry="2" />
<text  x="93.14" y="223.5" >goog..</text>
</g>
<g >
<title>github.com/nats-io/nats%2ego.(*Conn).createNewRequestAndSend (184,610,455 ns, 0.73%)</title><rect x="10.7" y="373" width="10.0" height="15.0" fill="rgb(226,100,24)" rx="2" ry="2" />
<text  x="13.73" y="383.5" ></text>
</g>
<g >
<title>google.golang.org/protobuf/internal/impl.(*MessageInfo).unmarshalPointerEager (836,150,254 ns, 3.29%)</title><rect x="90.1" y="229" width="45.4" height="15.0" fill="rgb(248,198,47)" rx="2" ry="2" />
<text  x="93.14" y="239.5" >goog..</text>
</g>
<g >
<title>github.com/jamespolk/go-log-aggregator/internal/queue.(*Conn).Consume.func1 (573,933,375 ns, 2.26%)</title><rect x="34.8" y="453" width="31.2" height="15.0" fill="rgb(249,206,49)" rx="2" ry="2" />
<text  x="37.83" y="463.5" >gi..</text>
</g>
<g >
<title>runtime.sysmon (119,058,236 ns, 0.47%)</title><rect x="162.8" y="437" width="6.5" height="15.0" fill="rgb(230,115,27)" rx="2" ry="2" />
<text  x="165.83" y="447.5" ></text>
</g>
<g >
<title>runtime.(*mcache).nextFree (573,933,375 ns, 2.26%)</title><rect x="34.8" y="213" width="31.2" height="15.0" fill="rgb(222,80,19)" rx="2" ry="2" />
<text  x="37.83" y="223.5" >ru..</text>
</g>
<g >
<title>runtime.mallocgcSmallNoscan (836,150,254 ns, 3.29%)</title><rect x="90.1" y="165" width="45.4" height="15.0" fill="rgb(239,156,37)" rx="2" ry="2" />
<text  x="93.14" y="175.5" >runt..</text>
</g>
<g >
<title>github.com/jamespolk/go-log-aggregator/internal/ingest.(*pipeline).publish (188,556,456 ns, 0.74%)</title><rect x="10.7" y="469" width="10.3" height="15.0" fill="rgb(242,173,41)" rx="2" ry="2" />
<text  x="13.73" y="479.5" ></text>
</g>
<g >
<title>runtime.(*mheap).freeSpan.func1 (17,941,605 ns, 0.07%)</title><rect x="158.2" y="277" width="1.0" height="15.0" fill="rgb(233,131,31)" rx="2" ry="2" />
<text  x="161.21" y="287.5" ></text>
</g>
<g >
<title>runtime.(*mcache).nextFree (418,679,327 ns, 1.65%)</title><rect x="135.5" y="181" width="22.7" height="15.0" fill="rgb(222,80,19)" rx="2" ry="2" />
<text  x="138.50" y="191.5" >r..</text>
</g>
<g >
<title>github.com/jamespolk/go-log-aggregator/internal/ingest.(*pipeline).start.gowrap1 (188,556,456 ns, 0.74%)</title><rect x="10.7" y="485" width="10.3" height="15.0" fill="rgb(239,160,38)" rx="2" ry="2" />
<text  x="13.73" y="495.5" ></text>
</g>
<g >
<title>runtime.(*mcentral).cacheSpan (418,679,327 ns, 1.65%)</title><rect x="135.5" y="149" width="22.7" height="15.0" fill="rgb(244,179,42)" rx="2" ry="2" />
<text  x="138.50" y="159.5" >r..</text>
</g>
<g >
<title>github.com/jamespolk/go-log-aggregator/internal/storage.(*Writer).flush (128,093,739 ns, 0.50%)</title><rect x="21.0" y="453" width="6.9" height="15.0" fill="rgb(229,112,26)" rx="2" ry="2" />
<text  x="23.96" y="463.5" ></text>
</g>
<g >
<title>github.com/jamespolk/go-log-aggregator/internal/storage.(*Writer).copyViaStaging (128,093,739 ns, 0.50%)</title><rect x="21.0" y="405" width="6.9" height="15.0" fill="rgb(252,218,52)" rx="2" ry="2" />
<text  x="23.96" y="415.5" ></text>
</g>
<g >
<title>runtime.(*mcache).releaseAll (17,941,605 ns, 0.07%)</title><rect x="158.2" y="325" width="1.0" height="15.0" fill="rgb(227,103,24)" rx="2" ry="2" />
<text  x="161.21" y="335.5" ></text>
</g>
<g >
<title>sync.(*RWMutex).Unlock (8,600,002 ns, 0.03%)</title><rect x="14.0" y="341" width="0.5" height="15.0" fill="rgb(222,82,19)" rx="2" ry="2" />
<text  x="16.99" y="351.5" ></text>
</g>
<g >
<title>github.com/nats-io/nats%2ego.(*Conn).flusher (126,566,638 ns, 0.50%)</title><rect x="27.9" y="469" width="6.9" height="15.0" fill="rgb(227,101,24)" rx="2" ry="2" />
<text  x="30.93" y="479.5" ></text>
</g>
<g >
<title>github.com/jackc/puddle/v2.(*Resource[go.shape.*uint8]).Release (128,093,739 ns, 0.50%)</title><rect x="21.0" y="357" width="6.9" height="15.0" fill="rgb(223,86,20)" rx="2" ry="2" />
<text  x="23.96" y="367.5" ></text>
</g>
<g >
<title>sync.(*Mutex).Unlock (432,822,532 ns, 1.70%)</title><rect x="66.0" y="341" width="23.5" height="15.0" fill="rgb(214,44,10)" rx="2" ry="2" />
<text  x="68.98" y="351.5" >s..</text>
</g>
<g >
<title>runtime.schedule (61,725,118 ns, 0.24%)</title><rect x="159.2" y="453" width="3.3" height="15.0" fill="rgb(220,72,17)" rx="2" ry="2" />
<text  x="162.18" y="463.5" ></text>
</g>
<g >
<title>runtime.systemstack (418,679,327 ns, 1.65%)</title><rect x="135.5" y="101" width="22.7" height="15.0" fill="rgb(206,6,1)" rx="2" ry="2" />
<text  x="138.50" y="111.5" >r..</text>
</g>
<g >
<title>google.golang.org/protobuf/internal/impl.consumeStringValidateUTF8 (573,933,375 ns, 2.26%)</title><rect x="34.8" y="277" width="31.2" height="15.0" fill="rgb(251,212,50)" rx="2" ry="2" />
<text  x="37.83" y="287.5" >go..</text>
</g>
<g >
<title>runtime.mallocgcLarge (10,525,003 ns, 0.04%)</title><rect x="1389.4" y="373" width="0.6" height="15.0" fill="rgb(220,69,16)" rx="2" ry="2" />
<text  x="1392.43" y="383.5" ></text>
</g>
<g >
<title>runtime.mallocgcSmallScanNoHeader (418,679,327 ns, 1.65%)</title><rect x="135.5" y="197" width="22.7" height="15.0" fill="rgb(216,53,12)" rx="2" ry="2" />
<text  x="138.50" y="207.5" >r..</text>
</g>
<g >
<title>github.com/jackc/pgx/v5/pgtype.(*wrapTimeEncodePlan).Encode (3,666,601 ns, 0.01%)</title><rect x="10.0" y="405" width="0.2" height="15.0" fill="rgb(245,185,44)" rx="2" ry="2" />
<text  x="13.00" y="415.5" ></text>
</g>
<g >
<title>github.com/jamespolk/go-log-aggregator/internal/storage.(*Writer).work (128,452,039 ns, 0.50%)</title><rect x="21.0" y="469" width="6.9" height="15.0" fill="rgb(243,174,41)" rx="2" ry="2" />
<text  x="23.96" y="479.5" ></text>
</g>
<g >
<title>runtime.systemstack (836,150,254 ns, 3.29%)</title><rect x="90.1" y="69" width="45.4" height="15.0" fill="rgb(206,6,1)" rx="2" ry="2" />
<text  x="93.14" y="79.5" >runt..</text>
</g>
<g >
<title>runtime.unlock (573,933,375 ns, 2.26%)</title><rect x="34.8" y="101" width="31.2" height="15.0" fill="rgb(217,57,13)" rx="2" ry="2" />
<text  x="37.83" y="111.5" >ru..</text>
</g>
<g >
<title>github.com/nats-io/nats%2ego.(*Conn).waitForMsgs (573,933,375 ns, 2.26%)</title><rect x="34.8" y="485" width="31.2" height="15.0" fill="rgb(215,50,11)" rx="2" ry="2" />
<text  x="37.83" y="495.5" >gi..</text>
</g>
<g >
<title>github.com/jamespolk/go-log-aggregator/internal/ingest.(*service).Stream (1,700,231,316 ns, 6.68%)</title><rect x="66.0" y="421" width="92.2" height="15.0" fill="rgb(243,175,42)" rx="2" ry="2" />
<text  x="68.98" y="431.5" >github.com/..</text>
</g>
<g >
<title>runtime.(*mcache).refill (9,775,002 ns, 0.04%)</title><rect x="10.2" y="309" width="0.5" height="15.0" fill="rgb(232,124,29)" rx="2" ry="2" />
<text  x="13.20" y="319.5" ></text>
</g>
<g >
<title>github.com/jackc/pgx/v5/pgxpool.(*Conn).Release (128,093,739 ns, 0.50%)</title><rect x="21.0" y="373" width="6.9" height="15.0" fill="rgb(253,224,53)" rx="2" ry="2" />
<text  x="23.96" y="383.5" ></text>
</g>
<g >
<title>runtime.(*mheap).alloc.func1 (3,666,601 ns, 0.01%)</title><rect x="10.0" y="245" width="0.2" height="15.0" fill="rgb(252,216,51)" rx="2" ry="2" />
<text  x="13.00" y="255.5" ></text>
</g>
<g >
<title>google.golang.org/protobuf/internal/impl.consumeMessageSliceInfo (1,254,829,581 ns, 4.93%)</title><rect x="90.1" y="261" width="68.1" height="15.0" fill="rgb(223,84,20)" rx="2" ry="2" />
<text  x="93.14" y="271.5" >google...</text>
</g>
<g >
<title>runtime.unlock (3,666,601 ns, 0.01%)</title><rect x="10.0" y="229" width="0.2" height="15.0" fill="rgb(217,57,13)" rx="2" ry="2" />
<text  x="13.00" y="239.5" ></text>
</g>
<g >
<title>runtime.(*mheap).alloc.func1 (418,679,327 ns, 1.65%)</title><rect x="135.5" y="85" width="22.7" height="15.0" fill="rgb(252,216,51)" rx="2" ry="2" />
<text  x="138.50" y="95.5" >r..</text>
</g>
<g >
<title>sync.(*Mutex).Unlock (128,093,739 ns, 0.50%)</title><rect x="21.0" y="325" width="6.9" height="15.0" fill="rgb(214,44,10)" rx="2" ry="2" />
<text  x="23.96" y="335.5" ></text>
</g>
<g >
<title>runtime.unlock (836,150,254 ns, 3.29%)</title><rect x="90.1" y="37" width="45.4" height="15.0" fill="rgb(217,57,13)" rx="2" ry="2" />
<text  x="93.14" y="47.5" >runt..</text>
</g>
<g >
<title>runtime.mallocgc (573,933,375 ns, 2.26%)</title><rect x="34.8" y="245" width="31.2" height="15.0" fill="rgb(241,169,40)" rx="2" ry="2" />
<text  x="37.83" y="255.5" >ru..</text>
</g>
<g >
<title>runtime.mallocgc (418,679,327 ns, 1.65%)</title><rect x="135.5" y="213" width="22.7" height="15.0" fill="rgb(241,169,40)" rx="2" ry="2" />
<text  x="138.50" y="223.5" >r..</text>
</g>
<g >
<title>runtime.slicebytetostring (573,933,375 ns, 2.26%)</title><rect x="34.8" y="261" width="31.2" height="15.0" fill="rgb(252,219,52)" rx="2" ry="2" />
<text  x="37.83" y="271.5" >ru..</text>
</g>
<g >
<title>google.golang.org/protobuf/internal/impl.(*MessageInfo).unmarshalPointerEager (573,933,375 ns, 2.26%)</title><rect x="34.8" y="341" width="31.2" height="15.0" fill="rgb(248,198,47)" rx="2" ry="2" />
<text  x="37.83" y="351.5" >go..</text>
</g>
<g >
<title>sync.(*WaitGroup).Go.func1 (10,525,003 ns, 0.04%)</title><rect x="1389.4" y="485" width="0.6" height="15.0" fill="rgb(238,152,36)" rx="2" ry="2" />
<text  x="1392.43" y="495.5" ></text>
</g>
<g >
<title>runtime.(*mcentral).cacheSpan (9,775,002 ns, 0.04%)</title><rect x="10.2" y="293" width="0.5" height="15.0" fill="rgb(244,179,42)" rx="2" ry="2" />
<text  x="13.20" y="303.5" ></text>
</g>
<g >
<title>runtime.(*mcentral).uncacheSpan (17,941,605 ns, 0.07%)</title><rect x="158.2" y="309" width="1.0" height="15.0" fill="rgb(227,104,24)" rx="2" ry="2" />
<text  x="161.21" y="319.5" ></text>
</g>
<g >
<title>google.golang.org/protobuf/internal/impl.(*MessageInfo).unmarshalPointer (1,254,829,581 ns, 4.93%)</title><rect x="90.1" y="293" width="68.1" height="15.0" fill="rgb(224,90,21)" rx="2" ry="2" />
<text  x="93.14" y="303.5" >google...</text>
</g>
<g >
<title>github.com/jamespolk/go-log-aggregator/internal/ingest.(*Consumer).Start.func1 (573,933,375 ns, 2.26%)</title><rect x="34.8" y="437" width="31.2" height="15.0" fill="rgb(234,133,31)" rx="2" ry="2" />
<text  x="37.83" y="447.5" >gi..</text>
</g>
<g >
<title>sync.(*RWMutex).RUnlock (3,946,001 ns, 0.02%)</title><rect x="20.7" y="373" width="0.3" height="15.0" fill="rgb(243,175,42)" rx="2" ry="2" />
<text  x="23.74" y="383.5" ></text>
</g>
<g >
<title>github.com/jackc/pgx/v5/internal/iobufpool.Get (10,525,003 ns, 0.04%)</title><rect x="1389.4" y="453" width="0.6" height="15.0" fill="rgb(215,48,11)" rx="2" ry="2" />
<text  x="1392.43" y="463.5" ></text>
</g>
<g >
<title>runtime.goschedImpl (17,941,605 ns, 0.07%)</title><rect x="158.2" y="453" width="1.0" height="15.0" fill="rgb(247,194,46)" rx="2" ry="2" />
<text  x="161.21" y="463.5" ></text>
</g>
<g >
<title>runtime.mallocgcSmallScanNoHeaderSC3 (3,666,601 ns, 0.01%)</title><rect x="10.0" y="357" width="0.2" height="15.0" fill="rgb(218,61,14)" rx="2" ry="2" />
<text  x="13.00" y="367.5" ></text>
</g>
<g >
<title>github.com/nats-io/nats.go/jetstream.(*pullConsumer).Consume.func1 (573,933,375 ns, 2.26%)</title><rect x="34.8" y="469" width="31.2" height="15.0" fill="rgb(208,15,3)" rx="2" ry="2" />
<text  x="37.83" y="479.5" >gi..</text>
</g>
<g >
<title>github.com/nats-io/nats%2ego.(*Conn).RequestMsgWithContext (188,556,456 ns, 0.74%)</title><rect x="10.7" y="405" width="10.3" height="15.0" fill="rgb(226,99,23)" rx="2" ry="2" />
<text  x="13.73" y="415.5" ></text>
</g>
<g >
<title>github.com/jackc/pgx/v5.encodeCopyValue (13,441,603 ns, 0.05%)</title><rect x="10.0" y="453" width="0.7" height="15.0" fill="rgb(232,126,30)" rx="2" ry="2" />
<text  x="13.00" y="463.5" ></text>
</g>
<g >
<title>runtime.(*mheap).alloc.func1 (10,525,003 ns, 0.04%)</title><rect x="1389.4" y="309" width="0.6" height="15.0" fill="rgb(252,216,51)" rx="2" ry="2" />
<text  x="1392.43" y="319.5" ></text>
</g>
<g >
<title>runtime.(*mcache).refill (418,679,327 ns, 1.65%)</title><rect x="135.5" y="165" width="22.7" height="15.0" fill="rgb(232,124,29)" rx="2" ry="2" />
<text  x="138.50" y="175.5" >r..</text>
</g>
<g >
<title>reflect.packEfaceData (9,775,002 ns, 0.04%)</title><rect x="10.2" y="389" width="0.5" height="15.0" fill="rgb(233,132,31)" rx="2" ry="2" />
<text  x="13.20" y="399.5" ></text>
</g>
<g >
<title>google.golang.org/grpc.(*Server).serveStreams.func2.1 (1,700,231,316 ns, 6.68%)</title><rect x="66.0" y="485" width="92.2" height="15.0" fill="rgb(226,97,23)" rx="2" ry="2" />
<text  x="68.98" y="495.5" >google.gola..</text>
</g>
<g >
<title>runtime.mstart1 (119,058,236 ns, 0.47%)</title><rect x="162.8" y="453" width="6.5" height="15.0" fill="rgb(254,225,53)" rx="2" ry="2" />
<text  x="165.83" y="463.5" ></text>
</g>
<g >
<title>runtime.convT (3,666,601 ns, 0.01%)</title><rect x="10.0" y="389" width="0.2" height="15.0" fill="rgb(207,10,2)" rx="2" ry="2" />
<text  x="13.00" y="399.5" ></text>
</g>
<g >
<title>reflect.packEface (9,775,002 ns, 0.04%)</title><rect x="10.2" y="405" width="0.5" height="15.0" fill="rgb(225,94,22)" rx="2" ry="2" />
<text  x="13.20" y="415.5" ></text>
</g>
<g >
<title>all (25,440,379,850 ns, 100%)</title><rect x="10.0" y="501" width="1380.0" height="15.0" fill="rgb(213,39,9)" rx="2" ry="2" />
<text  x="13.00" y="511.5" ></text>
</g>
<g >
<title>runtime.unlock (17,941,605 ns, 0.07%)</title><rect x="158.2" y="261" width="1.0" height="15.0" fill="rgb(217,57,13)" rx="2" ry="2" />
<text  x="161.21" y="271.5" ></text>
</g>
<g >
<title>runtime.(*mheap).alloc.func1 (836,150,254 ns, 3.29%)</title><rect x="90.1" y="53" width="45.4" height="15.0" fill="rgb(252,216,51)" rx="2" ry="2" />
<text  x="93.14" y="63.5" >runt..</text>
</g>
<g >
<title>runtime.(*mcentral).cacheSpan (3,666,601 ns, 0.01%)</title><rect x="10.0" y="309" width="0.2" height="15.0" fill="rgb(244,179,42)" rx="2" ry="2" />
<text  x="13.00" y="319.5" ></text>
</g>
<g >
<title>runtime.(*mcentral).cacheSpan (836,150,254 ns, 3.29%)</title><rect x="90.1" y="117" width="45.4" height="15.0" fill="rgb(244,179,42)" rx="2" ry="2" />
<text  x="93.14" y="127.5" >runt..</text>
</g>
<g >
<title>google.golang.org/protobuf/internal/impl.consumeMessageSliceInfo (573,933,375 ns, 2.26%)</title><rect x="34.8" y="325" width="31.2" height="15.0" fill="rgb(223,84,20)" rx="2" ry="2" />
<text  x="37.83" y="335.5" >go..</text>
</g>
<g >
<title>runtime.mallocgc (836,150,254 ns, 3.29%)</title><rect x="90.1" y="181" width="45.4" height="15.0" fill="rgb(241,169,40)" rx="2" ry="2" />
<text  x="93.14" y="191.5" >runt..</text>
</g>
<g >
<title>sync.(*Mutex).Unlock (115,906,135 ns, 0.46%)</title><rect x="14.5" y="357" width="6.2" height="15.0" fill="rgb(214,44,10)" rx="2" ry="2" />
<text  x="17.46" y="367.5" ></text>
</g>
<g >
<title>runtime.(*mheap).alloc (9,775,002 ns, 0.04%)</title><rect x="10.2" y="261" width="0.5" height="15.0" fill="rgb(230,117,28)" rx="2" ry="2" />
<text  x="13.20" y="271.5" ></text>
</g>
<g >
<title>sync.(*Mutex).Unlock (22,493,452,660 ns, 88.42%)</title><rect x="169.3" y="485" width="1220.1" height="15.0" fill="rgb(214,44,10)" rx="2" ry="2" />
<text  x="172.28" y="495.5" >sync.(*Mutex).Unlock</text>
</g>
<g >
<title>reflect.Value.Interface (9,775,002 ns, 0.04%)</title><rect x="10.2" y="421" width="0.5" height="15.0" fill="rgb(246,190,45)" rx="2" ry="2" />
<text  x="13.20" y="431.5" ></text>
</g>
<g >
<title>google.golang.org/grpc.(*GenericServerStream[go.shape.df332d41e0445eac035bb936a81b75f313b1ea6d5d891dfafdcd141893cca286,go.shape.7f4381d32bf8dc7c9368ff0cacb85265b27b3c540d7a7893709a7af11959fade]).Recv (1,254,829,581 ns, 4.93%)</title><rect x="90.1" y="405" width="68.1" height="15.0" fill="rgb(223,83,20)" rx="2" ry="2" />
<text  x="93.14" y="415.5" >google...</text>
</g>
<g >
<title>github.com/jackc/pgx/v5/pgtype.(*Map).Encode (13,441,603 ns, 0.05%)</title><rect x="10.0" y="437" width="0.7" height="15.0" fill="rgb(243,177,42)" rx="2" ry="2" />
<text  x="13.00" y="447.5" ></text>
</g>
<g >
<title>google.golang.org/protobuf/internal/impl.(*MessageInfo).unmarshalPointer (573,933,375 ns, 2.26%)</title><rect x="34.8" y="357" width="31.2" height="15.0" fill="rgb(224,90,21)" rx="2" ry="2" />
<text  x="37.83" y="367.5" >go..</text>
</g>
<g >
<title>runtime.(*mcache).refill (573,933,375 ns, 2.26%)</title><rect x="34.8" y="197" width="31.2" height="15.0" fill="rgb(232,124,29)" rx="2" ry="2" />
<text  x="37.83" y="207.5" >ru..</text>
</g>
<g >
<title>github.com/jamespolk/go-log-aggregator/api/proto/logagg/v1._LogService_Stream_Handler (1,700,231,316 ns, 6.68%)</title><rect x="66.0" y="437" width="92.2" height="15.0" fill="rgb(207,13,3)" rx="2" ry="2" />
<text  x="68.98" y="447.5" >github.com/..</text>
</g>
<g >
<title>runtime.mallocgc (9,775,002 ns, 0.04%)</title><rect x="10.2" y="357" width="0.5" height="15.0" fill="rgb(241,169,40)" rx="2" ry="2" />
<text  x="13.20" y="367.5" ></text>
</g>
<g >
<title>runtime.systemstack (10,525,003 ns, 0.04%)</title><rect x="1389.4" y="325" width="0.6" height="15.0" fill="rgb(206,6,1)" rx="2" ry="2" />
<text  x="1392.43" y="335.5" ></text>
</g>
<g >
<title>github.com/jackc/pgx/v5/pgxpool.(*Tx).Commit (128,093,739 ns, 0.50%)</title><rect x="21.0" y="389" width="6.9" height="15.0" fill="rgb(225,93,22)" rx="2" ry="2" />
<text  x="23.96" y="399.5" ></text>
</g>
<g >
<title>runtime.unlock (10,525,003 ns, 0.04%)</title><rect x="1389.4" y="293" width="0.6" height="15.0" fill="rgb(217,57,13)" rx="2" ry="2" />
<text  x="1392.43" y="303.5" ></text>
</g>
<g >
<title>github.com/nats-io/nats%2ego.(*Conn).publish (68,704,320 ns, 0.27%)</title><rect x="10.7" y="357" width="3.8" height="15.0" fill="rgb(240,161,38)" rx="2" ry="2" />
<text  x="13.73" y="367.5" ></text>
</g>
<g >
<title>google.golang.org/grpc.(*Server).handleStream (1,700,231,316 ns, 6.68%)</title><rect x="66.0" y="469" width="92.2" height="15.0" fill="rgb(209,18,4)" rx="2" ry="2" />
<text  x="68.98" y="479.5" >google.gola..</text>
</g>
<g >
<title>runtime.findRunnable (17,941,605 ns, 0.07%)</title><rect x="158.2" y="421" width="1.0" height="15.0" fill="rgb(219,64,15)" rx="2" ry="2" />
<text  x="161.21" y="431.5" ></text>
</g>
<g >
<title>github.com/jamespolk/go-log-aggregator/internal/storage.(*Writer).writeOnce (128,093,739 ns, 0.50%)</title><rect x="21.0" y="437" width="6.9" height="15.0" fill="rgb(208,15,3)" rx="2" ry="2" />
<text  x="23.96" y="447.5" ></text>
</g>
<g >
<title>google.golang.org/protobuf/internal/impl.(*MessageInfo).unmarshalPointerEager (573,933,375 ns, 2.26%)</title><rect x="34.8" y="293" width="31.2" height="15.0" fill="rgb(248,198,47)" rx="2" ry="2" />
<text  x="37.83" y="303.5" >go..</text>
</g>
<g >
<title>github.com/nats-io/nats%2ego.(*Conn).requestWithContext (188,556,456 ns, 0.74%)</title><rect x="10.7" y="389" width="10.3" height="15.0" fill="rgb(225,94,22)" rx="2" ry="2" />
<text  x="13.73" y="399.5" ></text>
</g>
<g >
<title>runtime.(*mcache).nextFree (9,775,002 ns, 0.04%)</title><rect x="10.2" y="325" width="0.5" height="15.0" fill="rgb(222,80,19)" rx="2" ry="2" />
<text  x="13.20" y="335.5" ></text>
</g>
<g >
<title>runtime.(*mcentral).grow (9,775,002 ns, 0.04%)</title><rect x="10.2" y="277" width="0.5" height="15.0" fill="rgb(233,130,31)" rx="2" ry="2" />
<text  x="13.20" y="287.5" ></text>
</g>
<g >
<title>runtime.systemstack (573,933,375 ns, 2.26%)</title><rect x="34.8" y="133" width="31.2" height="15.0" fill="rgb(206,6,1)" rx="2" ry="2" />
<text  x="37.83" y="143.5" >ru..</text>
</g>
<g >
<title>runtime.(*mcentral).grow (3,666,601 ns, 0.01%)</title><rect x="10.0" y="293" width="0.2" height="15.0" fill="rgb(233,130,31)" rx="2" ry="2" />
<text  x="13.00" y="303.5" ></text>
</g>
<g >
<title>runtime.stopm (17,941,605 ns, 0.07%)</title><rect x="158.2" y="389" width="1.0" height="15.0" fill="rgb(242,172,41)" rx="2" ry="2" />
<text  x="161.21" y="399.5" ></text>
</g>
<g >
<title>google.golang.org/protobuf/internal/impl.(*MessageInfo).unmarshal (573,933,375 ns, 2.26%)</title><rect x="34.8" y="373" width="31.2" height="15.0" fill="rgb(235,140,33)" rx="2" ry="2" />
<text  x="37.83" y="383.5" >go..</text>
</g>
<g >
<title>runtime.slicebytetostring (836,150,254 ns, 3.29%)</title><rect x="90.1" y="197" width="45.4" height="15.0" fill="rgb(252,219,52)" rx="2" ry="2" />
<text  x="93.14" y="207.5" >runt..</text>
</g>
<g >
<title>reflect.New (418,679,327 ns, 1.65%)</title><rect x="135.5" y="245" width="22.7" height="15.0" fill="rgb(254,228,54)" rx="2" ry="2" />
<text  x="138.50" y="255.5" >r..</text>
</g>
<g >
<title>sync.(*Mutex).Unlock (126,566,638 ns, 0.50%)</title><rect x="27.9" y="453" width="6.9" height="15.0" fill="rgb(214,44,10)" rx="2" ry="2" />
<text  x="30.93" y="463.5" ></text>
</g>
<g >
<title>runtime.mcall (79,666,723 ns, 0.31%)</title><rect x="158.2" y="485" width="4.3" height="15.0" fill="rgb(213,40,9)" rx="2" ry="2" />
<text  x="161.21" y="495.5" ></text>
</g>
<g >
<title>runtime.(*mcentral).grow (573,933,375 ns, 2.26%)</title><rect x="34.8" y="165" width="31.2" height="15.0" fill="rgb(233,130,31)" rx="2" ry="2" />
<text  x="37.83" y="175.5" >ru..</text>
</g>
<g >
<title>google.golang.org/protobuf/internal/impl.(*MessageInfo).unmarshalPointerEager (1,254,829,581 ns, 4.93%)</title><rect x="90.1" y="277" width="68.1" height="15.0" fill="rgb(248,198,47)" rx="2" ry="2" />
<text  x="93.14" y="287.5" >google...</text>
</g>
<g >
<title>github.com/jamespolk/go-log-aggregator/internal/storage.(*Writer).Start.gowrap1 (128,452,039 ns, 0.50%)</title><rect x="21.0" y="485" width="6.9" height="15.0" fill="rgb(207,10,2)" rx="2" ry="2" />
<text  x="23.96" y="495.5" ></text>
</g>
<g >
<title>github.com/nats-io/nats%2ego.(*Conn).Publish (445,401,735 ns, 1.75%)</title><rect x="66.0" y="373" width="24.1" height="15.0" fill="rgb(246,192,45)" rx="2" ry="2" />
<text  x="68.98" y="383.5" >g..</text>
</g>
<g >
<title>sync.(*Pool).Get (10,525,003 ns, 0.04%)</title><rect x="1389.4" y="437" width="0.6" height="15.0" fill="rgb(241,165,39)" rx="2" ry="2" />
<text  x="1392.43" y="447.5" ></text>
</g>
<g >
<title>google.golang.org/grpc.recv (1,254,829,581 ns, 4.93%)</title><rect x="90.1" y="373" width="68.1" height="15.0" fill="rgb(246,191,45)" rx="2" ry="2" />
<text  x="93.14" y="383.5" >google...</text>
</g>
<g >
<title>runtime.acquirepNoTrace (17,941,605 ns, 0.07%)</title><rect x="158.2" y="357" width="1.0" height="15.0" fill="rgb(218,60,14)" rx="2" ry="2" />
<text  x="161.21" y="367.5" ></text>
</g>
<g >
<title>runtime.systemstack (9,775,002 ns, 0.04%)</title><rect x="10.2" y="245" width="0.5" height="15.0" fill="rgb(206,6,1)" rx="2" ry="2" />
<text  x="13.20" y="255.5" ></text>
</g>
<g >
<title>sync.(*RWMutex).Unlock (12,579,203 ns, 0.05%)</title><rect x="89.5" y="341" width="0.6" height="15.0" fill="rgb(222,82,19)" rx="2" ry="2" />
<text  x="92.46" y="351.5" ></text>
</g>
<g >
<title>runtime.mallocgcSmallNoscan (573,933,375 ns, 2.26%)</title><rect x="34.8" y="229" width="31.2" height="15.0" fill="rgb(239,156,37)" rx="2" ry="2" />
<text  x="37.83" y="239.5" >ru..</text>
</g>
<g >
<title>runtime.mallocgcSmallScanNoHeaderSC3 (9,775,002 ns, 0.04%)</title><rect x="10.2" y="341" width="0.5" height="15.0" fill="rgb(218,61,14)" rx="2" ry="2" />
<text  x="13.20" y="351.5" ></text>
</g>
<g >
<title>google.golang.org/protobuf/proto.UnmarshalOptions.unmarshal (573,933,375 ns, 2.26%)</title><rect x="34.8" y="389" width="31.2" height="15.0" fill="rgb(246,190,45)" rx="2" ry="2" />
<text  x="37.83" y="399.5" >go..</text>
</g>
<g >
<title>runtime.(*mcentral).cacheSpan (573,933,375 ns, 2.26%)</title><rect x="34.8" y="181" width="31.2" height="15.0" fill="rgb(244,179,42)" rx="2" ry="2" />
<text  x="37.83" y="191.5" >ru..</text>
</g>
<g >
<title>github.com/jamespolk/go-log-aggregator/internal/ingest.(*service).process (445,401,735 ns, 1.75%)</title><rect x="66.0" y="389" width="24.1" height="15.0" fill="rgb(243,177,42)" rx="2" ry="2" />
<text  x="68.98" y="399.5" >g..</text>
</g>
<g >
<title>runtime.(*mcache).refill (836,150,254 ns, 3.29%)</title><rect x="90.1" y="133" width="45.4" height="15.0" fill="rgb(232,124,29)" rx="2" ry="2" />
<text  x="93.14" y="143.5" >runt..</text>
</g>
<g >
<title>runtime.gopreempt_m (17,941,605 ns, 0.07%)</title><rect x="158.2" y="469" width="1.0" height="15.0" fill="rgb(237,148,35)" rx="2" ry="2" />
<text  x="161.21" y="479.5" ></text>
</g>
<g >
<title>runtime.(*mcentral).grow (418,679,327 ns, 1.65%)</title><rect x="135.5" y="133" width="22.7" height="15.0" fill="rgb(233,130,31)" rx="2" ry="2" />
<text  x="138.50" y="143.5" >r..</text>
</g>
<g >
<title>google.golang.org/protobuf/internal/impl.(*MessageInfo).unmarshal (1,254,829,581 ns, 4.93%)</title><rect x="90.1" y="309" width="68.1" height="15.0" fill="rgb(235,140,33)" rx="2" ry="2" />
<text  x="93.14" y="319.5" >google...</text>
</g>
<g >
<title>runtime.morestack (5,429,101 ns, 0.02%)</title><rect x="162.5" y="485" width="0.3" height="15.0" fill="rgb(219,67,16)" rx="2" ry="2" />
<text  x="165.53" y="495.5" ></text>
</g>
<g >
<title>github.com/jackc/puddle/v2.(*Pool[go.shape.*uint8]).releaseAcquiredResource (128,093,739 ns, 0.50%)</title><rect x="21.0" y="341" width="6.9" height="15.0" fill="rgb(210,23,5)" rx="2" ry="2" />
<text  x="23.96" y="351.5" ></text>
</g>
<g >
<title>google.golang.org/protobuf/proto.Unmarshal (1,254,829,581 ns, 4.93%)</title><rect x="90.1" y="341" width="68.1" height="15.0" fill="rgb(248,198,47)" rx="2" ry="2" />
<text  x="93.14" y="351.5" >google...</text>
</g>
<g >
<title>google.golang.org/protobuf/internal/impl.(*MessageInfo).unmarshalPointer (836,150,254 ns, 3.29%)</title><rect x="90.1" y="245" width="45.4" height="15.0" fill="rgb(224,90,21)" rx="2" ry="2" />
<text  x="93.14" y="255.5" >goog..</text>
</g>
<g >
<title>sync.(*Mutex).Unlock (60,104,318 ns, 0.24%)</title><rect x="10.7" y="341" width="3.3" height="15.0" fill="rgb(214,44,10)" rx="2" ry="2" />
<text  x="13.73" y="351.5" ></text>
</g>
<g >
<title>github.com/jackc/pgx/v5/internal/iobufpool.init.0.func1 (10,525,003 ns, 0.04%)</title><rect x="1389.4" y="421" width="0.6" height="15.0" fill="rgb(223,86,20)" rx="2" ry="2" />
<text  x="1392.43" y="431.5" ></text>
</g>
<g >
<title>github.com/jamespolk/go-log-aggregator/internal/ingest.(*pipeline).run (188,556,456 ns, 0.74%)</title><rect x="10.7" y="453" width="10.3" height="15.0" fill="rgb(243,174,41)" rx="2" ry="2" />
<text  x="13.73" y="463.5" ></text>
</g>
<g >
<title>google.golang.org/grpc.(*Server).processStreamingRPC (1,700,231,316 ns, 6.68%)</title><rect x="66.0" y="453" width="92.2" height="15.0" fill="rgb(225,96,22)" rx="2" ry="2" />
<text  x="68.98" y="463.5" >google.gola..</text>
</g>
<g >
<title>runtime.(*mcache).nextFree (3,666,601 ns, 0.01%)</title><rect x="10.0" y="341" width="0.2" height="15.0" fill="rgb(222,80,19)" rx="2" ry="2" />
<text  x="13.00" y="351.5" ></text>
</g>
<g >
<title>github.com/jamespolk/go-log-aggregator/internal/ingest.(*Consumer).handle (573,933,375 ns, 2.26%)</title><rect x="34.8" y="421" width="31.2" height="15.0" fill="rgb(205,1,0)" rx="2" ry="2" />
<text  x="37.83" y="431.5" >gi..</text>
</g>
<g >
<title>runtime.(*mheap).alloc (418,679,327 ns, 1.65%)</title><rect x="135.5" y="117" width="22.7" height="15.0" fill="rgb(230,117,28)" rx="2" ry="2" />
<text  x="138.50" y="127.5" >r..</text>
</g>
<g >
<title>google.golang.org/grpc.(*serverStream).RecvMsg (1,254,829,581 ns, 4.93%)</title><rect x="90.1" y="389" width="68.1" height="15.0" fill="rgb(217,58,14)" rx="2" ry="2" />
<text  x="93.14" y="399.5" >google...</text>
</g>
<g >
<title>runtime.park_m (61,725,118 ns, 0.24%)</title><rect x="159.2" y="469" width="3.3" height="15.0" fill="rgb(233,132,31)" rx="2" ry="2" />
<text  x="162.18" y="479.5" ></text>
</g>
<g >
<title>runtime.(*mheap).alloc (10,525,003 ns, 0.04%)</title><rect x="1389.4" y="341" width="0.6" height="15.0" fill="rgb(230,117,28)" rx="2" ry="2" />
<text  x="1392.43" y="351.5" ></text>
</g>
<g >
<title>google.golang.org/protobuf/internal/impl.(*MessageInfo).unmarshalPointer (573,933,375 ns, 2.26%)</title><rect x="34.8" y="309" width="31.2" height="15.0" fill="rgb(224,90,21)" rx="2" ry="2" />
<text  x="37.83" y="319.5" >go..</text>
</g>
<g >
<title>runtime.(*mcache).allocLarge (10,525,003 ns, 0.04%)</title><rect x="1389.4" y="357" width="0.6" height="15.0" fill="rgb(253,221,53)" rx="2" ry="2" />
<text  x="1392.43" y="367.5" ></text>
</g>
<g >
<title>reflect.unsafe_New (9,775,002 ns, 0.04%)</title><rect x="10.2" y="373" width="0.5" height="15.0" fill="rgb(243,177,42)" rx="2" ry="2" />
<text  x="13.20" y="383.5" ></text>
</g>
<g >
<title>runtime.unlock (418,679,327 ns, 1.65%)</title><rect x="135.5" y="69" width="22.7" height="15.0" fill="rgb(217,57,13)" rx="2" ry="2" />
<text  x="138.50" y="79.5" >r..</text>
</g>
<g >
<title>runtime.gcstopm (17,941,605 ns, 0.07%)</title><rect x="158.2" y="405" width="1.0" height="15.0" fill="rgb(237,149,35)" rx="2" ry="2" />
<text  x="161.21" y="415.5" ></text>
</g>
<g >
<title>github.com/jamespolk/go-log-aggregator/internal/storage.(*Writer).commitRecords (128,093,739 ns, 0.50%)</title><rect x="21.0" y="421" width="6.9" height="15.0" fill="rgb(249,206,49)" rx="2" ry="2" />
<text  x="23.96" y="431.5" ></text>
</g>
<g >
<title>github.com/nats-io/nats%2ego.(*Conn).processConnectInit.gowrap3 (126,566,638 ns, 0.50%)</title><rect x="27.9" y="485" width="6.9" height="15.0" fill="rgb(251,215,51)" rx="2" ry="2" />
<text  x="30.93" y="495.5" ></text>
</g>
<g >
<title>runtime.(*mcache).refill (3,666,601 ns, 0.01%)</title><rect x="10.0" y="325" width="0.2" height="15.0" fill="rgb(232,124,29)" rx="2" ry="2" />
<text  x="13.00" y="335.5" ></text>
</g>
<g >
<title>runtime.(*mcentral).grow (836,150,254 ns, 3.29%)</title><rect x="90.1" y="101" width="45.4" height="15.0" fill="rgb(233,130,31)" rx="2" ry="2" />
<text  x="93.14" y="111.5" >runt..</text>
</g>
<g >
<title>github.com/jackc/pgx/v5.(*copyFrom).run.func1 (13,441,603 ns, 0.05%)</title><rect x="10.0" y="485" width="0.7" height="15.0" fill="rgb(249,202,48)" rx="2" ry="2" />
<text  x="13.00" y="495.5" ></text>
</g>
<g >
<title>runtime.mstart (119,058,236 ns, 0.47%)</title><rect x="162.8" y="485" width="6.5" height="15.0" fill="rgb(220,71,17)" rx="2" ry="2" />
<text  x="165.83" y="495.5" ></text>
</g>
<g >
<title>reflect.unsafe_New (418,679,327 ns, 1.65%)</title><rect x="135.5" y="229" width="22.7" height="15.0" fill="rgb(243,177,42)" rx="2" ry="2" />
<text  x="138.50" y="239.5" >r..</text>
</g>
</g>
</svg>
