<?xml version="1.0" standalone="no"?>
<!DOCTYPE svg PUBLIC "-//W3C//DTD SVG 1.1//EN" "http://www.w3.org/Graphics/SVG/1.1/DTD/svg11.dtd">
<svg version="1.1" width="1400" height="550" onload="init(evt)" viewBox="0 0 1400 550" xmlns="http://www.w3.org/2000/svg" xmlns:xlink="http://www.w3.org/1999/xlink">
<!-- Flame graph stack visualization. See https://github.com/brendangregg/FlameGraph for latest version, and http://www.brendangregg.com/flamegraphs.html for examples. -->
<!-- NOTES:  -->
<defs>
	<linearGradient id="background" y1="0" y2="1" x1="0" x2="0" >
		<stop stop-color="#eeeeee" offset="5%" />
		<stop stop-color="#eeeeb0" offset="95%" />
	</linearGradient>
</defs>
<style type="text/css">
	text { font-family:Verdana; font-size:12px; fill:rgb(0,0,0); }
	#search, #ignorecase { opacity:0.1; cursor:pointer; }
	#search:hover, #search.show, #ignorecase:hover, #ignorecase.show { opacity:1; }
	#subtitle { text-anchor:middle; font-color:rgb(160,160,160); }
	#title { text-anchor:middle; font-size:17px}
	#unzoom { cursor:pointer; }
	#frames > *:hover { stroke:black; stroke-width:0.5; cursor:pointer; }
	.hide { display:none; }
	.parent { opacity:0.5; }
</style>
<script type="text/ecmascript">
<![CDATA[
	"use strict";
	var details, searchbtn, unzoombtn, matchedtxt, svg, searching, currentSearchTerm, ignorecase, ignorecaseBtn;
	function init(evt) {
		details = document.getElementById("details").firstChild;
		searchbtn = document.getElementById("search");
		ignorecaseBtn = document.getElementById("ignorecase");
		unzoombtn = document.getElementById("unzoom");
		matchedtxt = document.getElementById("matched");
		svg = document.getElementsByTagName("svg")[0];
		searching = 0;
		currentSearchTerm = null;

		// use GET parameters to restore a flamegraphs state.
		var params = get_params();
		if (params.x && params.y)
			zoom(find_group(document.querySelector('[x="' + params.x + '"][y="' + params.y + '"]')));
                if (params.s) search(params.s);
	}

	// event listeners
	window.addEventListener("click", function(e) {
		var target = find_group(e.target);
		if (target) {
			if (target.nodeName == "a") {
				if (e.ctrlKey === false) return;
				e.preventDefault();
			}
			if (target.classList.contains("parent")) unzoom(true);
			zoom(target);
			if (!document.querySelector('.parent')) {
				// we have basically done a clearzoom so clear the url
				var params = get_params();
				if (params.x) delete params.x;
				if (params.y) delete params.y;
				history.replaceState(null, null, parse_params(params));
				unzoombtn.classList.add("hide");
				return;
			}

			// set parameters for zoom state
			var el = target.querySelector("rect");
			if (el && el.attributes && el.attributes.y && el.attributes._orig_x) {
				var params = get_params()
				params.x = el.attributes._orig_x.value;
				params.y = el.attributes.y.value;
				history.replaceState(null, null, parse_params(params));
			}
		}
		else if (e.target.id == "unzoom") clearzoom();
		else if (e.target.id == "search") search_prompt();
		else if (e.target.id == "ignorecase") toggle_ignorecase();
	}, false)

	// mouse-over for info
	// show
	window.addEventListener("mouseover", function(e) {
		var target = find_group(e.target);
		if (target) details.nodeValue = "Function: " + g_to_text(target);
	}, false)

	// clear
	window.addEventListener("mouseout", function(e) {
		var target = find_group(e.target);
		if (target) details.nodeValue = ' ';
	}, false)

	// ctrl-F for search
	// ctrl-I to toggle case-sensitive search
	window.addEventListener("keydown",function (e) {
		if (e.keyCode === 114 || (e.ctrlKey && e.keyCode === 70)) {
			e.preventDefault();
			search_prompt();
		}
		else if (e.ctrlKey && e.keyCode === 73) {
			e.preventDefault();
			toggle_ignorecase();
		}
	}, false)

	// functions
	function get_params() {
		var params = {};
		var paramsarr = window.location.search.substr(1).split('&');
		for (var i = 0; i < paramsarr.length; ++i) {
			var tmp = paramsarr[i].split("=");
			if (!tmp[0] || !tmp[1]) continue;
			params[tmp[0]]  = decodeURIComponent(tmp[1]);
		}
		return params;
	}
	function parse_params(params) {
		var uri = "?";
		for (var key in params) {
			uri += key + '=' + encodeURIComponent(params[key]) + '&';
		}
		if (uri.slice(-1) == "&")
			uri = uri.substring(0, uri.length - 1);
		if (uri == '?')
			uri = window.location.href.split('?')[0];
		return uri;
	}
	function find_child(node, selector) {
		var children = node.querySelectorAll(selector);
		if (children.length) return children[0];
	}
	function find_group(node) {
		var parent = node.parentElement;
		if (!parent) return;
		if (parent.id == "frames") return node;
		return find_group(parent);
	}
	function orig_save(e, attr, val) {
		if (e.attributes["_orig_" + attr] != undefined) return;
		if (e.attributes[attr] == undefined) return;
		if (val == undefined) val = e.attributes[attr].value;
		e.setAttribute("_orig_" + attr, val);
	}
	function orig_load(e, attr) {
		if (e.attributes["_orig_"+attr] == undefined) return;
		e.attributes[attr].value = e.attributes["_orig_" + attr].value;
		e.removeAttribute("_orig_"+attr);
	}
	function g_to_text(e) {
		var text = find_child(e, "title").firstChild.nodeValue;
		return (text)
	}
	function g_to_func(e) {
		var func = g_to_text(e);
		// if there's any manipulation we want to do to the function
		// name before it's searched, do it here before returning.
		return (func);
	}
	function update_text(e) {
		var r = find_child(e, "rect");
		var t = find_child(e, "text");
		var w = parseFloat(r.attributes.width.value) -3;
		var txt = find_child(e, "title").textContent.replace(/\([^(]*\)$/,"");
		t.attributes.x.value = parseFloat(r.attributes.x.value) + 3;

		// Smaller than this size won't fit anything
		if (w < 2 * 12 * 0.59) {
			t.textContent = "";
			return;
		}

		t.textContent = txt;
		var sl = t.getSubStringLength(0, txt.length);
		// check if only whitespace or if we can fit the entire string into width w
		if (/^ *$/.test(txt) || sl < w)
			return;

		// this isn't perfect, but gives a good starting point
		// and avoids calling getSubStringLength too often
		var start = Math.floor((w/sl) * txt.length);
		for (var x = start; x > 0; x = x-2) {
			if (t.getSubStringLength(0, x + 2) <= w) {
				t.textContent = txt.substring(0, x) + "..";
				return;
			}
		}
		t.textContent = "";
	}

	// zoom
	function zoom_reset(e) {
		if (e.attributes != undefined) {
			orig_load(e, "x");
			orig_load(e, "width");
		}
		if (e.childNodes == undefined) return;
		for (var i = 0, c = e.childNodes; i < c.length; i++) {
			zoom_reset(c[i]);
		}
	}
	function zoom_child(e, x, ratio) {
		if (e.attributes != undefined) {
			if (e.attributes.x != undefined) {
				orig_save(e, "x");
				e.attributes.x.value = (parseFloat(e.attributes.x.value) - x - 10) * ratio + 10;
				if (e.tagName == "text")
					e.attributes.x.value = find_child(e.parentNode, "rect[x]").attributes.x.value + 3;
			}
			if (e.attributes.width != undefined) {
				orig_save(e, "width");
				e.attributes.width.value = parseFloat(e.attributes.width.value) * ratio;
			}
		}

		if (e.childNodes == undefined) return;
		for (var i = 0, c = e.childNodes; i < c.length; i++) {
			zoom_child(c[i], x - 10, ratio);
		}
	}
	function zoom_parent(e) {
		if (e.attributes) {
			if (e.attributes.x != undefined) {
				orig_save(e, "x");
				e.attributes.x.value = 10;
			}
			if (e.attributes.width != undefined) {
				orig_save(e, "width");
				e.attributes.width.value = parseInt(svg.width.baseVal.value) - (10 * 2);
			}
		}
		if (e.childNodes == undefined) return;
		for (var i = 0, c = e.childNodes; i < c.length; i++) {
			zoom_parent(c[i]);
		}
	}
	function zoom(node) {
		var attr = find_child(node, "rect").attributes;
		var width = parseFloat(attr.width.value);
		var xmin = parseFloat(attr.x.value);
		var xmax = parseFloat(xmin + width);
		var ymin = parseFloat(attr.y.value);
		var ratio = (svg.width.baseVal.value - 2 * 10) / width;

		// XXX: Workaround for JavaScript float issues (fix me)
		var fudge = 0.0001;

		unzoombtn.classList.remove("hide");

		var el = document.getElementById("frames").children;
		for (var i = 0; i < el.length; i++) {
			var e = el[i];
			var a = find_child(e, "rect").attributes;
			var ex = parseFloat(a.x.value);
			var ew = parseFloat(a.width.value);
			var upstack;
			// Is it an ancestor
			if (0 == 0) {
				upstack = parseFloat(a.y.value) > ymin;
			} else {
				upstack = parseFloat(a.y.value) < ymin;
			}
			if (upstack) {
				// Direct ancestor
				if (ex <= xmin && (ex+ew+fudge) >= xmax) {
					e.classList.add("parent");
					zoom_parent(e);
					update_text(e);
				}
				// not in current path
				else
					e.classList.add("hide");
			}
			// Children maybe
			else {
				// no common path
				if (ex < xmin || ex + fudge >= xmax) {
					e.classList.add("hide");
				}
				else {
					zoom_child(e, xmin, ratio);
					update_text(e);
				}
			}
		}
		search();
	}
	function unzoom(dont_update_text) {
		unzoombtn.classList.add("hide");
		var el = document.getElementById("frames").children;
		for(var i = 0; i < el.length; i++) {
			el[i].classList.remove("parent");
			el[i].classList.remove("hide");
			zoom_reset(el[i]);
			if(!dont_update_text) update_text(el[i]);
		}
		search();
	}
	function clearzoom() {
		unzoom();

		// remove zoom state
		var params = get_params();
		if (params.x) delete params.x;
		if (params.y) delete params.y;
		history.replaceState(null, null, parse_params(params));
	}

	// search
	function toggle_ignorecase() {
		ignorecase = !ignorecase;
		if (ignorecase) {
			ignorecaseBtn.classList.add("show");
		} else {
			ignorecaseBtn.classList.remove("show");
		}
		reset_search();
		search();
	}
	function reset_search() {
		var el = document.querySelectorAll("#frames rect");
		for (var i = 0; i < el.length; i++) {
			orig_load(el[i], "fill")
		}
		var params = get_params();
		delete params.s;
		history.replaceState(null, null, parse_params(params));
	}
	function search_prompt() {
		if (!searching) {
			var term = prompt("Enter a search term (regexp " +
			    "allowed, eg: ^ext4_)"
			    + (ignorecase ? ", ignoring case" : "")
			    + "\nPress Ctrl-i to toggle case sensitivity", "");
			if (term != null) search(term);
		} else {
			reset_search();
			searching = 0;
			currentSearchTerm = null;
			searchbtn.classList.remove("show");
			searchbtn.firstChild.nodeValue = "Search"
			matchedtxt.classList.add("hide");
			matchedtxt.firstChild.nodeValue = ""
		}
	}
	function search(term) {
		if (term) currentSearchTerm = term;

		var re = new RegExp(currentSearchTerm, ignorecase ? 'i' : '');
		var el = document.getElementById("frames").children;
		var matches = new Object();
		var maxwidth = 0;
		for (var i = 0; i < el.length; i++) {
			var e = el[i];
			var func = g_to_func(e);
			var rect = find_child(e, "rect");
			if (func == null || rect == null)
				continue;

			// Save max width. Only works as we have a root frame
			var w = parseFloat(rect.attributes.width.value);
			if (w > maxwidth)
				maxwidth = w;

			if (func.match(re)) {
				// highlight
				var x = parseFloat(rect.attributes.x.value);
				orig_save(rect, "fill");
				rect.attributes.fill.value = "rgb(230,0,230)";

				// remember matches
				if (matches[x] == undefined) {
					matches[x] = w;
				} else {
					if (w > matches[x]) {
						// overwrite with parent
						matches[x] = w;
					}
				}
				searching = 1;
			}
		}
		if (!searching)
			return;
		var params = get_params();
		params.s = currentSearchTerm;
		history.replaceState(null, null, parse_params(params));

		searchbtn.classList.add("show");
		searchbtn.firstChild.nodeValue = "Reset Search";

		// calculate percent matched, excluding vertical overlap
		var count = 0;
		var lastx = -1;
		var lastw = 0;
		var keys = Array();
		for (k in matches) {
			if (matches.hasOwnProperty(k))
				keys.push(k);
		}
		// sort the matched frames by their x location
		// ascending, then width descending
		keys.sort(function(a, b){
			return a - b;
		});
		// Step through frames saving only the biggest bottom-up frames
		// thanks to the sort order. This relies on the tree property
		// where children are always smaller than their parents.
		var fudge = 0.0001;	// JavaScript floating point
		for (var k in keys) {
			var x = parseFloat(keys[k]);
			var w = matches[keys[k]];
			if (x >= lastx + lastw - fudge) {
				count += w;
				lastx = x;
				lastw = w;
			}
		}
		// display matched percent
		matchedtxt.classList.remove("hide");
		var pct = 100 * count / maxwidth;
		if (pct != 100) pct = pct.toFixed(1)
		matchedtxt.firstChild.nodeValue = "Matched: " + pct + "%";
	}
]]>
</script>
<rect x="0.0" y="0" width="1400.0" height="550.0" fill="url(#background)"  />
<text id="title" x="700.00" y="24" >alloc-profiled: mutex</text>
<text id="details" x="10.00" y="533" > </text>
<text id="unzoom" x="10.00" y="24" class="hide">Reset Zoom</text>
<text id="search" x="1290.00" y="24" >Search</text>
<text id="ignorecase" x="1374.00" y="24" >ic</text>
<text id="matched" x="1290.00" y="533" > </text>
<g id="frames">
<g >
<title>108 (13,441,603 ns, 0.05%)</title><rect x="1230.7" y="469" width="0.7" height="15.0" fill="rgb(225,92,22)" rx="2" ry="2" />
<text  x="1233.72" y="479.5" ></text>
</g>
<g >
<title>all (25,440,379,850 ns, 100%)</title><rect x="10.0" y="501" width="1380.0" height="15.0" fill="rgb(213,39,9)" rx="2" ry="2" />
<text  x="13.00" y="511.5" ></text>
</g>
<g >
<title>65 (184,610,455 ns, 0.73%)</title><rect x="1375.7" y="389" width="10.0" height="15.0" fill="rgb(222,79,19)" rx="2" ry="2" />
<text  x="1378.66" y="399.5" ></text>
</g>
<g >
<title>8 (9,775,002 ns, 0.04%)</title><rect x="1230.7" y="309" width="0.5" height="15.0" fill="rgb(251,215,51)" rx="2" ry="2" />
<text  x="1233.72" y="319.5" ></text>
</g>
<g >
<title>87 (17,941,605 ns, 0.07%)</title><rect x="1389.0" y="405" width="1.0" height="15.0" fill="rgb(246,190,45)" rx="2" ry="2" />
<text  x="1392.03" y="415.5" ></text>
</g>
<g >
<title>4 (418,679,327 ns, 1.65%)</title><rect x="1277.2" y="101" width="22.7" height="15.0" fill="rgb(227,104,24)" rx="2" ry="2" />
<text  x="1280.15" y="111.5" >4</text>
</g>
<g >
<title>85 (17,941,605 ns, 0.07%)</title><rect x="1389.0" y="373" width="1.0" height="15.0" fill="rgb(209,20,4)" rx="2" ry="2" />
<text  x="1392.03" y="383.5" ></text>
</g>
<g >
<title>21 (1,254,829,581 ns, 4.93%)</title><rect x="1231.8" y="373" width="68.1" height="15.0" fill="rgb(224,87,20)" rx="2" ry="2" />
<text  x="1234.80" y="383.5" >21</text>
</g>
<g >
<title>40 (418,679,327 ns, 1.65%)</title><rect x="1277.2" y="197" width="22.7" height="15.0" fill="rgb(217,57,13)" rx="2" ry="2" />
<text  x="1280.15" y="207.5" >40</text>
</g>
<g >
<title>4 (573,933,375 ns, 2.26%)</title><rect x="1324.0" y="133" width="31.2" height="15.0" fill="rgb(227,104,24)" rx="2" ry="2" />
<text  x="1327.03" y="143.5" >4</text>
</g>
<g >
<title>5 (573,933,375 ns, 2.26%)</title><rect x="1324.0" y="149" width="31.2" height="15.0" fill="rgb(221,74,17)" rx="2" ry="2" />
<text  x="1327.03" y="159.5" >5</text>
</g>
<g >
<title>17 (1,254,829,581 ns, 4.93%)</title><rect x="1231.8" y="309" width="68.1" height="15.0" fill="rgb(241,168,40)" rx="2" ry="2" />
<text  x="1234.80" y="319.5" >17</text>
</g>
<g >
<title>45 (128,093,739 ns, 0.50%)</title><rect x="1355.2" y="325" width="6.9" height="15.0" fill="rgb(235,139,33)" rx="2" ry="2" />
<text  x="1358.18" y="335.5" ></text>
</g>
<g >
<title>16 (573,933,375 ns, 2.26%)</title><rect x="1324.0" y="325" width="31.2" height="15.0" fill="rgb(248,198,47)" rx="2" ry="2" />
<text  x="1327.03" y="335.5" >16</text>
</g>
<g >
<title>8 (418,679,327 ns, 1.65%)</title><rect x="1277.2" y="165" width="22.7" height="15.0" fill="rgb(251,215,51)" rx="2" ry="2" />
<text  x="1280.15" y="175.5" >8</text>
</g>
<g >
<title>44 (418,679,327 ns, 1.65%)</title><rect x="1277.2" y="261" width="22.7" height="15.0" fill="rgb(241,168,40)" rx="2" ry="2" />
<text  x="1280.15" y="271.5" >44</text>
</g>
<g >
<title>35 (445,401,735 ns, 1.75%)</title><rect x="1299.9" y="357" width="24.1" height="15.0" fill="rgb(241,168,40)" rx="2" ry="2" />
<text  x="1302.87" y="367.5" >35</text>
</g>
<g >
<title>61 (119,058,236 ns, 0.47%)</title><rect x="1369.0" y="453" width="6.5" height="15.0" fill="rgb(248,198,47)" rx="2" ry="2" />
<text  x="1371.99" y="463.5" ></text>
</g>
<g >
<title>19 (1,254,829,581 ns, 4.93%)</title><rect x="1231.8" y="341" width="68.1" height="15.0" fill="rgb(228,109,26)" rx="2" ry="2" />
<text  x="1234.80" y="351.5" >19</text>
</g>
<g >
<title>2 (573,933,375 ns, 2.26%)</title><rect x="1324.0" y="101" width="31.2" height="15.0" fill="rgb(240,163,39)" rx="2" ry="2" />
<text  x="1327.03" y="111.5" >2</text>
</g>
<g >
<title>19 (573,933,375 ns, 2.26%)</title><rect x="1324.0" y="405" width="31.2" height="15.0" fill="rgb(228,109,26)" rx="2" ry="2" />
<text  x="1327.03" y="415.5" >19</text>
</g>
<g >
<title>77 (68,704,320 ns, 0.27%)</title><rect x="1382.0" y="373" width="3.7" height="15.0" fill="rgb(252,220,52)" rx="2" ry="2" />
<text  x="1384.95" y="383.5" ></text>
</g>
<g >
<title>2 (753,862,729 ns, 2.96%)</title><rect x="1231.8" y="37" width="40.9" height="15.0" fill="rgb(240,163,39)" rx="2" ry="2" />
<text  x="1234.80" y="47.5" >2</text>
</g>
<g >
<title>91 (12,579,203 ns, 0.05%)</title><rect x="1323.3" y="341" width="0.7" height="15.0" fill="rgb(228,109,26)" rx="2" ry="2" />
<text  x="1326.34" y="351.5" ></text>
</g>
<g >
<title>78 (17,941,605 ns, 0.07%)</title><rect x="1389.0" y="261" width="1.0" height="15.0" fill="rgb(246,190,45)" rx="2" ry="2" />
<text  x="1392.03" y="271.5" ></text>
</g>
<g >
<title>7 (9,775,002 ns, 0.04%)</title><rect x="1230.7" y="293" width="0.5" height="15.0" fill="rgb(208,14,3)" rx="2" ry="2" />
<text  x="1233.72" y="303.5" ></text>
</g>
<g >
<title>67 (188,556,456 ns, 0.74%)</title><rect x="1375.5" y="421" width="10.2" height="15.0" fill="rgb(209,20,4)" rx="2" ry="2" />
<text  x="1378.45" y="431.5" ></text>
</g>
<g >
<title>49 (128,093,739 ns, 0.50%)</title><rect x="1355.2" y="389" width="6.9" height="15.0" fill="rgb(209,20,4)" rx="2" ry="2" />
<text  x="1358.18" y="399.5" ></text>
</g>
<g >
<title>10 (573,933,375 ns, 2.26%)</title><rect x="1324.0" y="229" width="31.2" height="15.0" fill="rgb(236,146,35)" rx="2" ry="2" />
<text  x="1327.03" y="239.5" >10</text>
</g>
<g >
<title>99 (10,525,003 ns, 0.04%)</title><rect x="1230.1" y="469" width="0.6" height="15.0" fill="rgb(227,101,24)" rx="2" ry="2" />
<text  x="1233.15" y="479.5" ></text>
</g>
<g >
<title>1 (22,493,452,660 ns, 88.42%)</title><rect x="10.0" y="485" width="1220.1" height="15.0" fill="rgb(247,193,46)" rx="2" ry="2" />
<text  x="13.00" y="495.5" >1</text>
</g>
<g >
<title>102 (3,666,601 ns, 0.01%)</title><rect x="1231.2" y="373" width="0.2" height="15.0" fill="rgb(213,41,9)" rx="2" ry="2" />
<text  x="1234.25" y="383.5" ></text>
</g>
<g >
<title>112 (5,429,101 ns, 0.02%)</title><rect x="1231.4" y="485" width="0.3" height="15.0" fill="rgb(207,11,2)" rx="2" ry="2" />
<text  x="1234.45" y="495.5" ></text>
</g>
<g >
<title>68 (188,556,456 ns, 0.74%)</title><rect x="1375.5" y="437" width="10.2" height="15.0" fill="rgb(252,220,52)" rx="2" ry="2" />
<text  x="1378.45" y="447.5" ></text>
</g>
<g >
<title>3 (418,679,327 ns, 1.65%)</title><rect x="1277.2" y="85" width="22.7" height="15.0" fill="rgb(234,133,31)" rx="2" ry="2" />
<text  x="1280.15" y="95.5" >3</text>
</g>
<g >
<title>102 (9,775,002 ns, 0.04%)</title><rect x="1230.7" y="357" width="0.5" height="15.0" fill="rgb(213,41,9)" rx="2" ry="2" />
<text  x="1233.72" y="367.5" ></text>
</g>
<g >
<title>3 (836,150,254 ns, 3.29%)</title><rect x="1231.8" y="53" width="45.4" height="15.0" fill="rgb(234,133,31)" rx="2" ry="2" />
<text  x="1234.80" y="63.5" >3</text>
</g>
<g >
<title>79 (17,941,605 ns, 0.07%)</title><rect x="1389.0" y="277" width="1.0" height="15.0" fill="rgb(240,161,38)" rx="2" ry="2" />
<text  x="1392.03" y="287.5" ></text>
</g>
<g >
<title>80 (17,941,605 ns, 0.07%)</title><rect x="1389.0" y="293" width="1.0" height="15.0" fill="rgb(241,168,40)" rx="2" ry="2" />
<text  x="1392.03" y="303.5" ></text>
</g>
<g >
<title>101 (9,775,002 ns, 0.04%)</title><rect x="1230.7" y="341" width="0.5" height="15.0" fill="rgb(220,70,16)" rx="2" ry="2" />
<text  x="1233.72" y="351.5" ></text>
</g>
<g >
<title>5 (3,666,601 ns, 0.01%)</title><rect x="1231.2" y="277" width="0.2" height="15.0" fill="rgb(221,74,17)" rx="2" ry="2" />
<text  x="1234.25" y="287.5" ></text>
</g>
<g >
<title>14 (836,150,254 ns, 3.29%)</title><rect x="1231.8" y="229" width="45.4" height="15.0" fill="rgb(211,28,6)" rx="2" ry="2" />
<text  x="1234.80" y="239.5" >14</text>
</g>
<g >
<title>4 (836,150,254 ns, 3.29%)</title><rect x="1231.8" y="69" width="45.4" height="15.0" fill="rgb(227,104,24)" rx="2" ry="2" />
<text  x="1234.80" y="79.5" >4</text>
</g>
<g >
<title>105 (9,775,002 ns, 0.04%)</title><rect x="1230.7" y="421" width="0.5" height="15.0" fill="rgb(244,181,43)" rx="2" ry="2" />
<text  x="1233.72" y="431.5" ></text>
</g>
<g >
<title>2 (3,666,601 ns, 0.01%)</title><rect x="1231.2" y="229" width="0.2" height="15.0" fill="rgb(240,163,39)" rx="2" ry="2" />
<text  x="1234.25" y="239.5" ></text>
</g>
<g >
<title>47 (128,093,739 ns, 0.50%)</title><rect x="1355.2" y="357" width="6.9" height="15.0" fill="rgb(222,79,19)" rx="2" ry="2" />
<text  x="1358.18" y="367.5" ></text>
</g>
<g >
<title>84 (17,941,605 ns, 0.07%)</title><rect x="1389.0" y="357" width="1.0" height="15.0" fill="rgb(215,50,11)" rx="2" ry="2" />
<text  x="1392.03" y="367.5" ></text>
</g>
<g >
<title>10 (836,150,254 ns, 3.29%)</title><rect x="1231.8" y="165" width="45.4" height="15.0" fill="rgb(236,146,35)" rx="2" ry="2" />
<text  x="1234.80" y="175.5" >10</text>
</g>
<g >
<title>28 (1,700,231,316 ns, 6.68%)</title><rect x="1231.8" y="485" width="92.2" height="15.0" fill="rgb(228,109,26)" rx="2" ry="2" />
<text  x="1234.80" y="495.5" >28</text>
</g>
<g >
<title>42 (418,679,327 ns, 1.65%)</title><rect x="1277.2" y="229" width="22.7" height="15.0" fill="rgb(254,228,54)" rx="2" ry="2" />
<text  x="1280.15" y="239.5" >42</text>
</g>
<g >
<title>117 (3,666,601 ns, 0.01%)</title><rect x="1231.2" y="421" width="0.2" height="15.0" fill="rgb(225,92,22)" rx="2" ry="2" />
<text  x="1234.25" y="431.5" ></text>
</g>
<g >
<title>66 (188,556,456 ns, 0.74%)</title><rect x="1375.5" y="405" width="10.2" height="15.0" fill="rgb(215,50,11)" rx="2" ry="2" />
<text  x="1378.45" y="415.5" ></text>
</g>
<g >
<title>4 (9,775,002 ns, 0.04%)</title><rect x="1230.7" y="245" width="0.5" height="15.0" fill="rgb(227,104,24)" rx="2" ry="2" />
<text  x="1233.72" y="255.5" ></text>
</g>
<g >
<title>3 (9,775,002 ns, 0.04%)</title><rect x="1230.7" y="229" width="0.5" height="15.0" fill="rgb(234,133,31)" rx="2" ry="2" />
<text  x="1233.72" y="239.5" ></text>
</g>
<g >
<title>76 (79,666,723 ns, 0.31%)</title><rect x="1385.7" y="485" width="4.3" height="15.0" fill="rgb(209,20,4)" rx="2" ry="2" />
<text  x="1388.68" y="495.5" ></text>
</g>
<g >
<title>6 (573,933,375 ns, 2.26%)</title><rect x="1324.0" y="165" width="31.2" height="15.0" fill="rgb(214,44,10)" rx="2" ry="2" />
<text  x="1327.03" y="175.5" >6</text>
</g>
<g >
<title>9 (418,679,327 ns, 1.65%)</title><rect x="1277.2" y="181" width="22.7" height="15.0" fill="rgb(245,185,44)" rx="2" ry="2" />
<text  x="1280.15" y="191.5" >9</text>
</g>
<g >
<title>58 (119,058,236 ns, 0.47%)</title><rect x="1369.0" y="405" width="6.5" height="15.0" fill="rgb(209,20,4)" rx="2" ry="2" />
<text  x="1371.99" y="415.5" ></text>
</g>
<g >
<title>86 (17,941,605 ns, 0.07%)</title><rect x="1389.0" y="389" width="1.0" height="15.0" fill="rgb(252,220,52)" rx="2" ry="2" />
<text  x="1392.03" y="399.5" ></text>
</g>
<g >
<title>30 (573,933,375 ns, 2.26%)</title><rect x="1324.0" y="437" width="31.2" height="15.0" fill="rgb(224,87,20)" rx="2" ry="2" />
<text  x="1327.03" y="447.5" >30</text>
</g>
<g >
<title>7 (3,666,601 ns, 0.01%)</title><rect x="1231.2" y="309" width="0.2" height="15.0" fill="rgb(208,14,3)" rx="2" ry="2" />
<text  x="1234.25" y="319.5" ></text>
</g>
<g >
<title>39 (445,401,735 ns, 1.75%)</title><rect x="1299.9" y="421" width="24.1" height="15.0" fill="rgb(215,50,11)" rx="2" ry="2" />
<text  x="1302.87" y="431.5" >39</text>
</g>
<g >
<title>54 (128,452,039 ns, 0.50%)</title><rect x="1355.2" y="469" width="6.9" height="15.0" fill="rgb(235,139,33)" rx="2" ry="2" />
<text  x="1358.16" y="479.5" ></text>
</g>
<g >
<title>110 (5,429,101 ns, 0.02%)</title><rect x="1231.4" y="453" width="0.3" height="15.0" fill="rgb(220,70,16)" rx="2" ry="2" />
<text  x="1234.45" y="463.5" ></text>
</g>
<g >
<title>91 (8,600,002 ns, 0.03%)</title><rect x="1385.2" y="341" width="0.5" height="15.0" fill="rgb(228,109,26)" rx="2" ry="2" />
<text  x="1388.21" y="351.5" ></text>
</g>
<g >
<title>111 (5,429,101 ns, 0.02%)</title><rect x="1231.4" y="469" width="0.3" height="15.0" fill="rgb(213,41,9)" rx="2" ry="2" />
<text  x="1234.45" y="479.5" ></text>
</g>
<g >
<title>33 (573,933,375 ns, 2.26%)</title><rect x="1324.0" y="485" width="31.2" height="15.0" fill="rgb(254,228,54)" rx="2" ry="2" />
<text  x="1327.03" y="495.5" >33</text>
</g>
<g >
<title>81 (17,941,605 ns, 0.07%)</title><rect x="1389.0" y="309" width="1.0" height="15.0" fill="rgb(235,139,33)" rx="2" ry="2" />
<text  x="1392.03" y="319.5" ></text>
</g>
<g >
<title>25 (1,700,231,316 ns, 6.68%)</title><rect x="1231.8" y="437" width="92.2" height="15.0" fill="rgb(248,198,47)" rx="2" ry="2" />
<text  x="1234.80" y="447.5" >25</text>
</g>
<g >
<title>109 (13,441,603 ns, 0.05%)</title><rect x="1230.7" y="485" width="0.7" height="15.0" fill="rgb(218,63,15)" rx="2" ry="2" />
<text  x="1233.72" y="495.5" ></text>
</g>
<g >
<title>98 (10,525,003 ns, 0.04%)</title><rect x="1230.1" y="453" width="0.6" height="15.0" fill="rgb(233,131,31)" rx="2" ry="2" />
<text  x="1233.15" y="463.5" ></text>
</g>
<g >
<title>88 (17,941,605 ns, 0.07%)</title><rect x="1389.0" y="421" width="1.0" height="15.0" fill="rgb(240,161,38)" rx="2" ry="2" />
<text  x="1392.03" y="431.5" ></text>
</g>
<g >
<title>23 (1,254,829,581 ns, 4.93%)</title><rect x="1231.8" y="405" width="68.1" height="15.0" fill="rgb(211,28,6)" rx="2" ry="2" />
<text  x="1234.80" y="415.5" >23</text>
</g>
<g >
<title>6 (418,679,327 ns, 1.65%)</title><rect x="1277.2" y="133" width="22.7" height="15.0" fill="rgb(214,44,10)" rx="2" ry="2" />
<text  x="1280.15" y="143.5" >6</text>
</g>
<g >
<title>103 (9,775,002 ns, 0.04%)</title><rect x="1230.7" y="389" width="0.5" height="15.0" fill="rgb(207,11,2)" rx="2" ry="2" />
<text  x="1233.72" y="399.5" ></text>
</g>
<g >
<title>27 (1,700,231,316 ns, 6.68%)</title><rect x="1231.8" y="469" width="92.2" height="15.0" fill="rgb(235,139,33)" rx="2" ry="2" />
<text  x="1234.80" y="479.5" >27</text>
</g>
<g >
<title>94 (10,525,003 ns, 0.04%)</title><rect x="1230.1" y="389" width="0.6" height="15.0" fill="rgb(209,20,4)" rx="2" ry="2" />
<text  x="1233.15" y="399.5" ></text>
</g>
<g >
<title>100 (10,525,003 ns, 0.04%)</title><rect x="1230.1" y="485" width="0.6" height="15.0" fill="rgb(226,100,24)" rx="2" ry="2" />
<text  x="1233.15" y="495.5" ></text>
</g>
<g >
<title>18 (1,254,829,581 ns, 4.93%)</title><rect x="1231.8" y="325" width="68.1" height="15.0" fill="rgb(235,139,33)" rx="2" ry="2" />
<text  x="1234.80" y="335.5" >18</text>
</g>
<g >
<title>69 (188,556,456 ns, 0.74%)</title><rect x="1375.5" y="453" width="10.2" height="15.0" fill="rgb(246,190,45)" rx="2" ry="2" />
<text  x="1378.45" y="463.5" ></text>
</g>
<g >
<title>11 (573,933,375 ns, 2.26%)</title><rect x="1324.0" y="245" width="31.2" height="15.0" fill="rgb(230,117,28)" rx="2" ry="2" />
<text  x="1327.03" y="255.5" >11</text>
</g>
<g >
<title>15 (573,933,375 ns, 2.26%)</title><rect x="1324.0" y="309" width="31.2" height="15.0" fill="rgb(254,228,54)" rx="2" ry="2" />
<text  x="1327.03" y="319.5" >15</text>
</g>
<g >
<title>53 (128,093,739 ns, 0.50%)</title><rect x="1355.2" y="453" width="6.9" height="15.0" fill="rgb(241,168,40)" rx="2" ry="2" />
<text  x="1358.18" y="463.5" ></text>
</g>
<g >
<title>62 (119,058,236 ns, 0.47%)</title><rect x="1369.0" y="469" width="6.5" height="15.0" fill="rgb(241,168,40)" rx="2" ry="2" />
<text  x="1371.99" y="479.5" ></text>
</g>
<g >
<title>113 (3,946,001 ns, 0.02%)</title><rect x="1375.5" y="373" width="0.2" height="15.0" fill="rgb(251,211,50)" rx="2" ry="2" />
<text  x="1378.45" y="383.5" ></text>
</g>
<g >
<title>52 (128,093,739 ns, 0.50%)</title><rect x="1355.2" y="437" width="6.9" height="15.0" fill="rgb(248,198,47)" rx="2" ry="2" />
<text  x="1358.18" y="447.5" ></text>
</g>
<g >
<title>74 (17,941,605 ns, 0.07%)</title><rect x="1389.0" y="437" width="1.0" height="15.0" fill="rgb(222,79,19)" rx="2" ry="2" />
<text  x="1392.03" y="447.5" ></text>
</g>
<g >
<title>34 (432,822,532 ns, 1.70%)</title><rect x="1299.9" y="341" width="23.4" height="15.0" fill="rgb(248,198,47)" rx="2" ry="2" />
<text  x="1302.87" y="351.5" >34</text>
</g>
<g >
<title>11 (836,150,254 ns, 3.29%)</title><rect x="1231.8" y="181" width="45.4" height="15.0" fill="rgb(230,117,28)" rx="2" ry="2" />
<text  x="1234.80" y="191.5" >11</text>
</g>
<g >
<title>116 (3,666,601 ns, 0.01%)</title><rect x="1231.2" y="405" width="0.2" height="15.0" fill="rgb(231,122,29)" rx="2" ry="2" />
<text  x="1234.25" y="415.5" ></text>
</g>
<g >
<title>90 (17,941,605 ns, 0.07%)</title><rect x="1389.0" y="469" width="1.0" height="15.0" fill="rgb(235,139,33)" rx="2" ry="2" />
<text  x="1392.03" y="479.5" ></text>
</g>
<g >
<title>18 (573,933,375 ns, 2.26%)</title><rect x="1324.0" y="389" width="31.2" height="15.0" fill="rgb(235,139,33)" rx="2" ry="2" />
<text  x="1327.03" y="399.5" >18</text>
</g>
<g >
<title>71 (188,556,456 ns, 0.74%)</title><rect x="1375.5" y="485" width="10.2" height="15.0" fill="rgb(241,168,40)" rx="2" ry="2" />
<text  x="1378.45" y="495.5" ></text>
</g>
<g >
<title>115 (3,666,601 ns, 0.01%)</title><rect x="1231.2" y="389" width="0.2" height="15.0" fill="rgb(238,152,36)" rx="2" ry="2" />
<text  x="1234.25" y="399.5" ></text>
</g>
<g >
<title>6 (3,666,601 ns, 0.01%)</title><rect x="1231.2" y="293" width="0.2" height="15.0" fill="rgb(214,44,10)" rx="2" ry="2" />
<text  x="1234.25" y="303.5" ></text>
</g>
<g >
<title>35 (68,704,320 ns, 0.27%)</title><rect x="1382.0" y="357" width="3.7" height="15.0" fill="rgb(241,168,40)" rx="2" ry="2" />
<text  x="1384.95" y="367.5" ></text>
</g>
<g >
<title>24 (1,254,829,581 ns, 4.93%)</title><rect x="1231.8" y="421" width="68.1" height="15.0" fill="rgb(254,228,54)" rx="2" ry="2" />
<text  x="1234.80" y="431.5" >24</text>
</g>
<g >
<title>2 (10,525,003 ns, 0.04%)</title><rect x="1230.1" y="293" width="0.6" height="15.0" fill="rgb(240,163,39)" rx="2" ry="2" />
<text  x="1233.15" y="303.5" ></text>
</g>
<g >
<title>34 (60,104,318 ns, 0.24%)</title><rect x="1382.0" y="341" width="3.2" height="15.0" fill="rgb(248,198,47)" rx="2" ry="2" />
<text  x="1384.95" y="351.5" ></text>
</g>
<g >
<title>37 (445,401,735 ns, 1.75%)</title><rect x="1299.9" y="389" width="24.1" height="15.0" fill="rgb(228,109,26)" rx="2" ry="2" />
<text  x="1302.87" y="399.5" >37</text>
</g>
<g >
<title>50 (128,093,739 ns, 0.50%)</title><rect x="1355.2" y="405" width="6.9" height="15.0" fill="rgb(211,28,6)" rx="2" ry="2" />
<text  x="1358.18" y="415.5" ></text>
</g>
<g >
<title>22 (1,254,829,581 ns, 4.93%)</title><rect x="1231.8" y="389" width="68.1" height="15.0" fill="rgb(217,57,13)" rx="2" ry="2" />
<text  x="1234.80" y="399.5" >22</text>
</g>
<g >
<title>46 (128,093,739 ns, 0.50%)</title><rect x="1355.2" y="341" width="6.9" height="15.0" fill="rgb(228,109,26)" rx="2" ry="2" />
<text  x="1358.18" y="351.5" ></text>
</g>
<g >
<title>48 (128,093,739 ns, 0.50%)</title><rect x="1355.2" y="373" width="6.9" height="15.0" fill="rgb(215,50,11)" rx="2" ry="2" />
<text  x="1358.18" y="383.5" ></text>
</g>
<g >
<title>5 (9,775,002 ns, 0.04%)</title><rect x="1230.7" y="261" width="0.5" height="15.0" fill="rgb(221,74,17)" rx="2" ry="2" />
<text  x="1233.72" y="271.5" ></text>
</g>
<g >
<title>15 (573,933,375 ns, 2.26%)</title><rect x="1324.0" y="357" width="31.2" height="15.0" fill="rgb(254,228,54)" rx="2" ry="2" />
<text  x="1327.03" y="367.5" >15</text>
</g>
<g >
<title>4 (10,525,003 ns, 0.04%)</title><rect x="1230.1" y="325" width="0.6" height="15.0" fill="rgb(227,104,24)" rx="2" ry="2" />
<text  x="1233.15" y="335.5" ></text>
</g>
<g >
<title>9 (836,150,254 ns, 3.29%)</title><rect x="1231.8" y="149" width="45.4" height="15.0" fill="rgb(245,185,44)" rx="2" ry="2" />
<text  x="1234.80" y="159.5" >9</text>
</g>
<g >
<title>20 (1,254,829,581 ns, 4.93%)</title><rect x="1231.8" y="357" width="68.1" height="15.0" fill="rgb(230,117,28)" rx="2" ry="2" />
<text  x="1234.80" y="367.5" >20</text>
</g>
<g >
<title>14 (573,933,375 ns, 2.26%)</title><rect x="1324.0" y="341" width="31.2" height="15.0" fill="rgb(211,28,6)" rx="2" ry="2" />
<text  x="1327.03" y="351.5" >14</text>
</g>
<g >
<title>14 (1,254,829,581 ns, 4.93%)</title><rect x="1231.8" y="277" width="68.1" height="15.0" fill="rgb(211,28,6)" rx="2" ry="2" />
<text  x="1234.80" y="287.5" >14</text>
</g>
<g >
<title>16 (836,150,254 ns, 3.29%)</title><rect x="1231.8" y="261" width="45.4" height="15.0" fill="rgb(248,198,47)" rx="2" ry="2" />
<text  x="1234.80" y="271.5" >16</text>
</g>
<g >
<title>106 (13,441,603 ns, 0.05%)</title><rect x="1230.7" y="437" width="0.7" height="15.0" fill="rgb(238,152,36)" rx="2" ry="2" />
<text  x="1233.72" y="447.5" ></text>
</g>
<g >
<title>5 (10,525,003 ns, 0.04%)</title><rect x="1230.1" y="341" width="0.6" height="15.0" fill="rgb(221,74,17)" rx="2" ry="2" />
<text  x="1233.15" y="351.5" ></text>
</g>
<g >
<title>14 (573,933,375 ns, 2.26%)</title><rect x="1324.0" y="293" width="31.2" height="15.0" fill="rgb(211,28,6)" rx="2" ry="2" />
<text  x="1327.03" y="303.5" >14</text>
</g>
<g >
<title>95 (10,525,003 ns, 0.04%)</title><rect x="1230.1" y="405" width="0.6" height="15.0" fill="rgb(252,220,52)" rx="2" ry="2" />
<text  x="1233.15" y="415.5" ></text>
</g>
<g >
<title>2 (418,679,327 ns, 1.65%)</title><rect x="1277.2" y="69" width="22.7" height="15.0" fill="rgb(240,163,39)" rx="2" ry="2" />
<text  x="1280.15" y="79.5" >2</text>
</g>
<g >
<title>12 (836,150,254 ns, 3.29%)</title><rect x="1231.8" y="197" width="45.4" height="15.0" fill="rgb(224,87,20)" rx="2" ry="2" />
<text  x="1234.80" y="207.5" >12</text>
</g>
<g >
<title>89 (17,941,605 ns, 0.07%)</title><rect x="1389.0" y="453" width="1.0" height="15.0" fill="rgb(233,131,31)" rx="2" ry="2" />
<text  x="1392.03" y="463.5" ></text>
</g>
<g >
<title>34 (126,566,638 ns, 0.50%)</title><rect x="1362.1" y="453" width="6.9" height="15.0" fill="rgb(248,198,47)" rx="2" ry="2" />
<text  x="1365.13" y="463.5" ></text>
</g>
<g >
<title>5 (418,679,327 ns, 1.65%)</title><rect x="1277.2" y="117" width="22.7" height="15.0" fill="rgb(221,74,17)" rx="2" ry="2" />
<text  x="1280.15" y="127.5" >5</text>
</g>
<g >
<title>5 (836,150,254 ns, 3.29%)</title><rect x="1231.8" y="85" width="45.4" height="15.0" fill="rgb(221,74,17)" rx="2" ry="2" />
<text  x="1234.80" y="95.5" >5</text>
</g>
<g >
<title>31 (573,933,375 ns, 2.26%)</title><rect x="1324.0" y="453" width="31.2" height="15.0" fill="rgb(217,57,13)" rx="2" ry="2" />
<text  x="1327.03" y="463.5" >31</text>
</g>
<g >
<title>8 (573,933,375 ns, 2.26%)</title><rect x="1324.0" y="197" width="31.2" height="15.0" fill="rgb(251,215,51)" rx="2" ry="2" />
<text  x="1327.03" y="207.5" >8</text>
</g>
<g >
<title>72 (82,287,525 ns, 0.32%)</title><rect x="1272.7" y="37" width="4.5" height="15.0" fill="rgb(235,139,33)" rx="2" ry="2" />
<text  x="1275.69" y="47.5" ></text>
</g>
<g >
<title>9 (3,666,601 ns, 0.01%)</title><rect x="1231.2" y="341" width="0.2" height="15.0" fill="rgb(245,185,44)" rx="2" ry="2" />
<text  x="1234.25" y="351.5" ></text>
</g>
<g >
<title>7 (573,933,375 ns, 2.26%)</title><rect x="1324.0" y="181" width="31.2" height="15.0" fill="rgb(208,14,3)" rx="2" ry="2" />
<text  x="1327.03" y="191.5" >7</text>
</g>
<g >
<title>9 (573,933,375 ns, 2.26%)</title><rect x="1324.0" y="213" width="31.2" height="15.0" fill="rgb(245,185,44)" rx="2" ry="2" />
<text  x="1327.03" y="223.5" >9</text>
</g>
<g >
<title>7 (418,679,327 ns, 1.65%)</title><rect x="1277.2" y="149" width="22.7" height="15.0" fill="rgb(208,14,3)" rx="2" ry="2" />
<text  x="1280.15" y="159.5" >7</text>
</g>
<g >
<title>93 (10,525,003 ns, 0.04%)</title><rect x="1230.1" y="373" width="0.6" height="15.0" fill="rgb(215,50,11)" rx="2" ry="2" />
<text  x="1233.15" y="383.5" ></text>
</g>
<g >
<title>6 (836,150,254 ns, 3.29%)</title><rect x="1231.8" y="101" width="45.4" height="15.0" fill="rgb(214,44,10)" rx="2" ry="2" />
<text  x="1234.80" y="111.5" >6</text>
</g>
<g >
<title>51 (128,093,739 ns, 0.50%)</title><rect x="1355.2" y="421" width="6.9" height="15.0" fill="rgb(254,228,54)" rx="2" ry="2" />
<text  x="1358.18" y="431.5" ></text>
</g>
<g >
<title>64 (115,906,135 ns, 0.46%)</title><rect x="1375.7" y="373" width="6.3" height="15.0" fill="rgb(228,109,26)" rx="2" ry="2" />
<text  x="1378.66" y="383.5" ></text>
</g>
<g >
<title>41 (418,679,327 ns, 1.65%)</title><rect x="1277.2" y="213" width="22.7" height="15.0" fill="rgb(211,28,6)" rx="2" ry="2" />
<text  x="1280.15" y="223.5" >41</text>
</g>
<g >
<title>2 (9,775,002 ns, 0.04%)</title><rect x="1230.7" y="213" width="0.5" height="15.0" fill="rgb(240,163,39)" rx="2" ry="2" />
<text  x="1233.72" y="223.5" ></text>
</g>
<g >
<title>36 (445,401,735 ns, 1.75%)</title><rect x="1299.9" y="373" width="24.1" height="15.0" fill="rgb(235,139,33)" rx="2" ry="2" />
<text  x="1302.87" y="383.5" >36</text>
</g>
<g >
<title>92 (10,525,003 ns, 0.04%)</title><rect x="1230.1" y="357" width="0.6" height="15.0" fill="rgb(222,79,19)" rx="2" ry="2" />
<text  x="1233.15" y="367.5" ></text>
</g>
<g >
<title>83 (17,941,605 ns, 0.07%)</title><rect x="1389.0" y="341" width="1.0" height="15.0" fill="rgb(222,79,19)" rx="2" ry="2" />
<text  x="1392.03" y="351.5" ></text>
</g>
<g >
<title>107 (13,441,603 ns, 0.05%)</title><rect x="1230.7" y="453" width="0.7" height="15.0" fill="rgb(231,122,29)" rx="2" ry="2" />
<text  x="1233.72" y="463.5" ></text>
</g>
<g >
<title>73 (61,195,918 ns, 0.24%)</title><rect x="1385.7" y="437" width="3.3" height="15.0" fill="rgb(228,109,26)" rx="2" ry="2" />
<text  x="1388.71" y="447.5" ></text>
</g>
<g >
<title>26 (1,700,231,316 ns, 6.68%)</title><rect x="1231.8" y="453" width="92.2" height="15.0" fill="rgb(241,168,40)" rx="2" ry="2" />
<text  x="1234.80" y="463.5" >26</text>
</g>
<g >
<title>15 (836,150,254 ns, 3.29%)</title><rect x="1231.8" y="245" width="45.4" height="15.0" fill="rgb(254,228,54)" rx="2" ry="2" />
<text  x="1234.80" y="255.5" >15</text>
</g>
<g >
<title>7 (836,150,254 ns, 3.29%)</title><rect x="1231.8" y="117" width="45.4" height="15.0" fill="rgb(208,14,3)" rx="2" ry="2" />
<text  x="1234.80" y="127.5" >7</text>
</g>
<g >
<title>59 (119,058,236 ns, 0.47%)</title><rect x="1369.0" y="421" width="6.5" height="15.0" fill="rgb(252,220,52)" rx="2" ry="2" />
<text  x="1371.99" y="431.5" ></text>
</g>
<g >
<title>97 (10,525,003 ns, 0.04%)</title><rect x="1230.1" y="437" width="0.6" height="15.0" fill="rgb(240,161,38)" rx="2" ry="2" />
<text  x="1233.15" y="447.5" ></text>
</g>
<g >
<title>29 (573,933,375 ns, 2.26%)</title><rect x="1324.0" y="421" width="31.2" height="15.0" fill="rgb(222,79,19)" rx="2" ry="2" />
<text  x="1327.03" y="431.5" >29</text>
</g>
<g >
<title>12 (573,933,375 ns, 2.26%)</title><rect x="1324.0" y="261" width="31.2" height="15.0" fill="rgb(224,87,20)" rx="2" ry="2" />
<text  x="1327.03" y="271.5" >12</text>
</g>
<g >
<title>96 (10,525,003 ns, 0.04%)</title><rect x="1230.1" y="421" width="0.6" height="15.0" fill="rgb(246,190,45)" rx="2" ry="2" />
<text  x="1233.15" y="431.5" ></text>
</g>
<g >
<title>38 (445,401,735 ns, 1.75%)</title><rect x="1299.9" y="405" width="24.1" height="15.0" fill="rgb(222,79,19)" rx="2" ry="2" />
<text  x="1302.87" y="415.5" >38</text>
</g>
<g >
<title>3 (3,666,601 ns, 0.01%)</title><rect x="1231.2" y="245" width="0.2" height="15.0" fill="rgb(234,133,31)" rx="2" ry="2" />
<text  x="1234.25" y="255.5" ></text>
</g>
<g >
<title>101 (3,666,601 ns, 0.01%)</title><rect x="1231.2" y="357" width="0.2" height="15.0" fill="rgb(220,70,16)" rx="2" ry="2" />
<text  x="1234.25" y="367.5" ></text>
</g>
<g >
<title>75 (61,725,118 ns, 0.24%)</title><rect x="1385.7" y="469" width="3.3" height="15.0" fill="rgb(215,50,11)" rx="2" ry="2" />
<text  x="1388.68" y="479.5" ></text>
</g>
<g >
<title>104 (9,775,002 ns, 0.04%)</title><rect x="1230.7" y="405" width="0.5" height="15.0" fill="rgb(251,211,50)" rx="2" ry="2" />
<text  x="1233.72" y="415.5" ></text>
</g>
<g >
<title>17 (573,933,375 ns, 2.26%)</title><rect x="1324.0" y="373" width="31.2" height="15.0" fill="rgb(241,168,40)" rx="2" ry="2" />
<text  x="1327.03" y="383.5" >17</text>
</g>
<g >
<title>15 (1,254,829,581 ns, 4.93%)</title><rect x="1231.8" y="293" width="68.1" height="15.0" fill="rgb(254,228,54)" rx="2" ry="2" />
<text  x="1234.80" y="303.5" >15</text>
</g>
<g >
<title>32 (573,933,375 ns, 2.26%)</title><rect x="1324.0" y="469" width="31.2" height="15.0" fill="rgb(211,28,6)" rx="2" ry="2" />
<text  x="1327.03" y="479.5" >32</text>
</g>
<g >
<title>57 (126,566,638 ns, 0.50%)</title><rect x="1362.1" y="485" width="6.9" height="15.0" fill="rgb(215,50,11)" rx="2" ry="2" />
<text  x="1365.13" y="495.5" ></text>
</g>
<g >
<title>82 (17,941,605 ns, 0.07%)</title><rect x="1389.0" y="325" width="1.0" height="15.0" fill="rgb(228,109,26)" rx="2" ry="2" />
<text  x="1392.03" y="335.5" ></text>
</g>
<g >
<title>8 (836,150,254 ns, 3.29%)</title><rect x="1231.8" y="133" width="45.4" height="15.0" fill="rgb(251,215,51)" rx="2" ry="2" />
<text  x="1234.80" y="143.5" >8</text>
</g>
<g >
<title>114 (3,946,001 ns, 0.02%)</title><rect x="1375.5" y="389" width="0.2" height="15.0" fill="rgb(244,181,43)" rx="2" ry="2" />
<text  x="1378.45" y="399.5" ></text>
</g>
<g >
<title>42 (9,775,002 ns, 0.04%)</title><rect x="1230.7" y="373" width="0.5" height="15.0" fill="rgb(254,228,54)" rx="2" ry="2" />
<text  x="1233.72" y="383.5" ></text>
</g>
<g >
<title>4 (3,666,601 ns, 0.01%)</title><rect x="1231.2" y="261" width="0.2" height="15.0" fill="rgb(227,104,24)" rx="2" ry="2" />
<text  x="1234.25" y="271.5" ></text>
</g>
<g >
<title>55 (128,452,039 ns, 0.50%)</title><rect x="1355.2" y="485" width="6.9" height="15.0" fill="rgb(228,109,26)" rx="2" ry="2" />
<text  x="1358.16" y="495.5" ></text>
</g>
<g >
<title>3 (573,933,375 ns, 2.26%)</title><rect x="1324.0" y="117" width="31.2" height="15.0" fill="rgb(234,133,31)" rx="2" ry="2" />
<text  x="1327.03" y="127.5" >3</text>
</g>
<g >
<title>3 (10,525,003 ns, 0.04%)</title><rect x="1230.1" y="309" width="0.6" height="15.0" fill="rgb(234,133,31)" rx="2" ry="2" />
<text  x="1233.15" y="319.5" ></text>
</g>
<g >
<title>70 (188,556,456 ns, 0.74%)</title><rect x="1375.5" y="469" width="10.2" height="15.0" fill="rgb(248,198,47)" rx="2" ry="2" />
<text  x="1378.45" y="479.5" ></text>
</g>
<g >
<title>74 (61,725,118 ns, 0.24%)</title><rect x="1385.7" y="453" width="3.3" height="15.0" fill="rgb(222,79,19)" rx="2" ry="2" />
<text  x="1388.68" y="463.5" ></text>
</g>
<g >
<title>13 (573,933,375 ns, 2.26%)</title><rect x="1324.0" y="277" width="31.2" height="15.0" fill="rgb(217,57,13)" rx="2" ry="2" />
<text  x="1327.03" y="287.5" >13</text>
</g>
<g >
<title>63 (119,058,236 ns, 0.47%)</title><rect x="1369.0" y="485" width="6.5" height="15.0" fill="rgb(235,139,33)" rx="2" ry="2" />
<text  x="1371.99" y="495.5" ></text>
</g>
<g >
<title>8 (3,666,601 ns, 0.01%)</title><rect x="1231.2" y="325" width="0.2" height="15.0" fill="rgb(251,215,51)" rx="2" ry="2" />
<text  x="1234.25" y="335.5" ></text>
</g>
<g >
<title>13 (836,150,254 ns, 3.29%)</title><rect x="1231.8" y="213" width="45.4" height="15.0" fill="rgb(217,57,13)" rx="2" ry="2" />
<text  x="1234.80" y="223.5" >13</text>
</g>
<g >
<title>60 (119,058,236 ns, 0.47%)</title><rect x="1369.0" y="437" width="6.5" height="15.0" fill="rgb(254,228,54)" rx="2" ry="2" />
<text  x="1371.99" y="447.5" ></text>
</g>
<g >
<title>56 (126,566,638 ns, 0.50%)</title><rect x="1362.1" y="469" width="6.9" height="15.0" fill="rgb(222,79,19)" rx="2" ry="2" />
<text  x="1365.13" y="479.5" ></text>
</g>
<g >
<title>43 (418,679,327 ns, 1.65%)</title><rect x="1277.2" y="245" width="22.7" height="15.0" fill="rgb(248,198,47)" rx="2" ry="2" />
<text  x="1280.15" y="255.5" >43</text>
</g>
<g >
<title>6 (9,775,002 ns, 0.04%)</title><rect x="1230.7" y="277" width="0.5" height="15.0" fill="rgb(214,44,10)" rx="2" ry="2" />
<text  x="1233.72" y="287.5" ></text>
</g>
<g >
<title>9 (9,775,002 ns, 0.04%)</title><rect x="1230.7" y="325" width="0.5" height="15.0" fill="rgb(245,185,44)" rx="2" ry="2" />
<text  x="1233.72" y="335.5" ></text>
</g>
<g >
<title>34 (115,906,135 ns, 0.46%)</title><rect x="1375.7" y="357" width="6.3" height="15.0" fill="rgb(248,198,47)" rx="2" ry="2" />
<text  x="1378.66" y="367.5" ></text>
</g>
</g>
</svg>
